<?xml version="1.0" encoding="utf-8"?>
<!-- Generator: Adobe Illustrator 23.0.1, SVG Export Plug-In . SVG Version: 6.00 Build 0)  -->
<svg version="1.1" id="Camada_1" xmlns="http://www.w3.org/2000/svg" xmlns:xlink="http://www.w3.org/1999/xlink" x="0px" y="0px"
	 viewBox="0 0 200 200" style="enable-background:new 0 0 200 200;" xml:space="preserve">
<style type="text/css">
	.st0{fill:none;stroke:#B5CFED;stroke-width:23;stroke-linecap:round;stroke-linejoin:round;stroke-miterlimit:10;}
	.st1{fill:#B6CFED;stroke:#B6CFED;stroke-width:0.5;stroke-linecap:round;stroke-linejoin:round;stroke-miterlimit:10;}
	.st2{fill:none;stroke:#B6CFED;stroke-width:10;stroke-linecap:round;stroke-linejoin:round;stroke-miterlimit:10;}
	.st3{fill:#B6CFED;stroke:#B6CFED;stroke-width:10;stroke-linecap:round;stroke-linejoin:round;stroke-miterlimit:10;}
	.st4{fill:#B6CFED;stroke:#B6CFED;stroke-width:2;stroke-linecap:round;stroke-linejoin:round;stroke-miterlimit:10;}
	.st5{fill:#010202;}
	.st6{fill:#010202;stroke:#B6CFED;stroke-width:10;stroke-miterlimit:10;}
	.st7{fill:#010202;stroke:#B6CFED;stroke-width:10;stroke-linecap:round;stroke-linejoin:round;stroke-miterlimit:10;}
	.st8{fill:#616160;}
	.st9{fill:#B6CFED;}
</style>
<path class="st0" d="M3249-194.3L3249-194.3c-238.2,0-431.3-193.1-431.3-431.3v0c0-238.2,193.1-431.3,431.3-431.3h0
	c238.2,0,431.3,193.1,431.3,431.3v0C3680.3-387.4,3487.2-194.3,3249-194.3z"/>
<path class="st1" d="M2932.7-418.5l66.4-57.8l-47.1,58.9l92.4-88.5l410.7,5.8l6.4-7.1l14.9,6.3l-15,13.9l32.1,27.8l36.4,15
	c-46.4,23.9-75.7,53.8-93.1,87.8c40.6-35.8,84.5-54.3,131.6-55.7c-117.9,75.7-247.2,126.3-397.1,131.6l51.4-57.8l86.7-32.1
	l-78.1,13.9l-76,68.5l-28.9,8.6l3.2-17.1l-40.7,12.8C3033.4-294,2981.1-336.5,2932.7-418.5z"/>
<path class="st2" d="M3043.9-501.9l-22.5,1l-1.1-21.4l-25.7-1.1l2.1-41.7l22.5,2.1c-1.7-10.2,2.1-20.8-1-30.5
	c-1.9-5.9-0.9-10.5,2.5-14.2c5.1-5.4,4.5-14.5,8.1-21.7l-23.5,5.4c-7.1-9.2-6.7-20.3-3.2-32.1c19.9-43.9,34-102.7,46-167
	c1.6-32.8,9.8-57.1,23.5-73.8l86.7-58.9c39.9-15.6,85.2-24,137-23.5c40.3,6.4,76,20,106,42.8c28.4,19.4,48.1,38.7,54.6,57.8
	c19.2,39,29.9,76.8,32.1,113.4c15.1,29.5,25,54.6,27.8,73.8c-9,38.2-23.1,74.8-44.6,109.2v34.2l-13.3,42.8L3043.9-501.9z"/>
<path class="st2" d="M3028.1-629.4c54.2-17.1,133-6.6,224.8,12.1c60.3,4.6,99.9-12.7,115.6-55.7l17.1,0L3407-781l-20.3-9.6l-31-3.2"
	/>
<path class="st3" d="M3328.1-684.4l0.9,0.4l-24.7,20.6c-9.1,7.7-21,12.2-36.4,12.8c-93.4-23.5-177.4-27.8-249.4-7.5l45-201.2
	c22.7-11.1,43-17.2,61-18.2c36.1-7.6,68.4-6.9,97.4,1.1c32.6,7.5,54.4,13.8,69.6,19.3l34.2,22.5c19.1,18.5,26.1,31.2,30,40.7h-26.8
	c-22.6,27.4-25.4,58.3-18.2,91C3312.5-692.6,3317.7-686.7,3328.1-684.4z"/>
<line class="st2" x1="3328.7" y1="-684" x2="3368.5" y2="-673.3"/>
<path class="st2" d="M3386.7-791l-18.2-45c-10.9-23.8-35-44.3-69.6-62.1l-72.8-15c-63-5.3-109.3,5.6-152.2,15.3"/>
<polyline class="st2" points="3014.3,-563 3029.7,-562.5 3470.9,-547.8 "/>
<line class="st2" x1="3015.3" y1="-522.4" x2="3458.4" y2="-502"/>
<path class="st2" d="M3459.7-644.4"/>
<polyline class="st2" points="3513.3,-674.9 3531.2,-660.4 3525.4,-649.4 3500.1,-601.6 3487.1,-610 "/>
<path class="st2" d="M3517.1-444.4c31.5-21.6,49.3-48.8,48.4-80.2c15.1-27.4,6.5-41.4,2.1-57.8c-1.1-33.2-18.9-53.6-39.6-71.7"/>
<path class="st2" d="M3503.7-606.8c12.7,9.9,20.7,23.6,19.9,41.9c-7.2,10.3-7.3,25.6-2,44.5c-2.8,19.6-19.9,35.8-43,51.1"/>
<circle class="st4" cx="3339.2" cy="-776.9" r="7"/>
<ellipse class="st4" cx="3389.2" cy="-766.9" rx="8" ry="9"/>
<ellipse class="st4" cx="3326.7" cy="-706.9" rx="6.5" ry="7"/>
<ellipse class="st4" cx="3371.2" cy="-693.9" rx="8" ry="7"/>
<polyline class="st2" points="3404,-765.2 3435.3,-744.7 3428.8,-709.4 3396.7,-725.8 "/>
<path class="st2" d="M3514.1-687.9c-4.4-4-14.1-0.9-15.3-0.9c-1.2,0-1.7-12.6-1.7-12.6l-12-1.2l-0.9,32.2l25.2,0.7"/>
<line class="st2" x1="3433.3" y1="-731.9" x2="3484.2" y2="-693.7"/>
<line class="st2" x1="3430.4" y1="-717.8" x2="3482.8" y2="-678.4"/>
<g>
	<path class="st5" d="M3330-447.4"/>
</g>
<g>
	<path class="st5" d="M3344.4-423.9"/>
</g>
<path class="st6" d="M3440.2-353.3"/>
<line class="st7" x1="3521.6" y1="-520.4" x2="3565.4" y2="-524.5"/>
<line class="st7" x1="3523.6" y1="-564.9" x2="3567.6" y2="-582.3"/>
<g>
	<path class="st5" d="M3312-553.8"/>
</g>
<path class="st8" d="M3386.7-363.4c-18,12.4-33.3,29-46.6,49"/>
<g>
	<path class="st9" d="M3276.7-410"/>
</g>
<g>
	<path class="st9" d="M3249.4-390.7"/>
</g>
<path class="st8" d="M3163.6-481.8c-50.2,39.5-96.6,84.3-139.3,134"/>
<line class="st8" x1="3070.6" y1="-489.4" x2="2979.5" y2="-410.7"/>
</svg>
