<?xml version="1.0" encoding="UTF-8"?>
<svg xmlns="http://www.w3.org/2000/svg" xmlns:xlink="http://www.w3.org/1999/xlink" width="600pt" height="599.999999pt" viewBox="0 0 600 599.999999" version="1.2">
<g id="surface1">
<path style=" stroke:none;fill-rule:nonzero;fill:rgb(71.369934%,81.568909%,94.898987%);fill-opacity:1;" d="M 487.558594 573.054688 C 486.238281 573.054688 484.929688 572.777344 483.703125 572.214844 C 405.878906 536.425781 395.390625 468.695312 395.390625 407.15625 C 395.390625 403.808594 397.207031 400.722656 400.128906 399.101562 L 483.078125 353.015625 C 485.863281 351.46875 489.246094 351.46875 492.027344 353.015625 L 574.976562 399.101562 C 577.90625 400.730469 579.722656 403.808594 579.722656 407.15625 C 579.722656 468.695312 569.234375 536.425781 491.410156 572.214844 C 490.183594 572.777344 488.875 573.054688 487.558594 573.054688 Z M 413.863281 412.566406 C 414.839844 487.257812 436.46875 528.675781 487.558594 553.644531 C 538.644531 528.675781 560.277344 487.257812 561.253906 412.566406 L 487.558594 371.625 Z M 413.863281 412.566406 "/>
<path style=" stroke:none;fill-rule:nonzero;fill:rgb(71.369934%,81.568909%,94.898987%);fill-opacity:1;" d="M 459.917969 499.320312 C 456.664062 499.320312 453.519531 497.597656 451.84375 494.554688 C 440.359375 473.753906 433.777344 450.742188 432.277344 426.152344 C 432.054688 422.464844 434.046875 419 437.355469 417.339844 L 474.222656 398.90625 C 478.765625 396.621094 484.304688 398.472656 486.589844 403.027344 C 488.867188 407.578125 487.023438 413.117188 482.46875 415.394531 L 451.171875 431.042969 C 453.132812 450.613281 458.785156 468.953125 467.992188 485.644531 C 470.453125 490.09375 468.828125 495.707031 464.378906 498.160156 C 462.949219 498.953125 461.417969 499.320312 459.917969 499.320312 Z M 459.917969 499.320312 "/>
<path style=" stroke:none;fill-rule:nonzero;fill:rgb(71.369934%,81.568909%,94.898987%);fill-opacity:1;" d="M 570.507812 314.988281 L 35.945312 314.988281 C 30.855469 314.988281 26.726562 310.859375 26.726562 305.773438 C 26.726562 300.683594 30.855469 296.554688 35.945312 296.554688 L 570.507812 296.554688 C 575.59375 296.554688 579.722656 300.683594 579.722656 305.773438 C 579.722656 310.859375 575.59375 314.988281 570.507812 314.988281 Z M 570.507812 314.988281 "/>
<path style=" stroke:none;fill-rule:nonzero;fill:rgb(71.369934%,81.568909%,94.898987%);fill-opacity:1;" d="M 303.226562 167.523438 C 225.023438 167.523438 152.324219 157.503906 98.507812 139.3125 C 95.59375 138.324219 93.363281 135.957031 92.5625 132.988281 C 91.761719 130.023438 92.488281 126.851562 94.507812 124.539062 C 99.355469 118.960938 103.546875 114.425781 107.714844 110.269531 C 215.519531 2.464844 390.929688 2.464844 498.738281 110.269531 C 502.894531 114.425781 507.097656 118.960938 511.945312 124.546875 C 513.964844 126.859375 514.691406 130.039062 513.890625 133 C 513.085938 135.964844 510.855469 138.335938 507.945312 139.320312 C 454.128906 157.515625 381.429688 167.523438 303.226562 167.523438 Z M 117.972656 126.132812 C 168.007812 140.796875 234.496094 149.101562 303.226562 149.101562 C 371.953125 149.101562 438.441406 140.796875 488.480469 126.132812 C 487.546875 125.164062 486.625 124.214844 485.703125 123.304688 C 385.085938 22.683594 221.363281 22.683594 120.746094 123.304688 C 119.824219 124.214844 118.902344 125.15625 117.972656 126.132812 Z M 117.972656 126.132812 "/>
<path style=" stroke:none;fill-rule:nonzero;fill:rgb(71.369934%,81.568909%,94.898987%);fill-opacity:1;" d="M 303.226562 582.195312 C 301.511719 582.195312 299.804688 581.71875 298.304688 580.777344 C 280 569.21875 263.078125 555.304688 243.4375 535.652344 C 180.957031 473.175781 146.542969 391.535156 146.542969 305.773438 C 146.542969 220.023438 180.957031 138.382812 243.4375 75.902344 C 263.078125 56.261719 280 42.34375 298.304688 30.777344 C 301.144531 28.988281 304.726562 28.871094 307.675781 30.5 C 310.617188 32.132812 312.441406 35.21875 312.441406 38.574219 L 312.441406 572.972656 C 312.441406 576.324219 310.617188 579.421875 307.675781 581.042969 C 306.285156 581.808594 304.753906 582.195312 303.226562 582.195312 Z M 294.007812 56.03125 C 281.933594 64.925781 269.90625 75.496094 256.46875 88.933594 C 197.476562 147.929688 164.976562 224.945312 164.976562 305.773438 C 164.976562 386.613281 197.476562 463.617188 256.46875 522.621094 C 269.898438 536.058594 281.933594 546.621094 294.007812 555.523438 Z M 294.007812 56.03125 "/>
<path style=" stroke:none;fill-rule:nonzero;fill:rgb(71.369934%,81.568909%,94.898987%);fill-opacity:1;" d="M 303.042969 582.566406 C 231.769531 582.566406 161.273438 554.84375 107.714844 501.285156 C -0.09375 393.488281 -0.09375 218.066406 107.714844 110.269531 C 215.519531 2.464844 390.929688 2.464844 498.738281 110.269531 C 574.625 186.152344 599.742188 300.363281 562.726562 401.210938 C 561.796875 403.734375 559.816406 405.734375 557.289062 406.675781 C 554.773438 407.605469 551.964844 407.394531 549.605469 406.09375 L 487.558594 371.625 L 413.863281 412.566406 C 414.5625 466.355469 425.804688 501.765625 450.054688 526.925781 C 451.992188 528.933594 452.914062 531.707031 452.5625 534.472656 C 452.210938 537.238281 450.636719 539.699219 448.257812 541.164062 C 403.179688 568.980469 352.921875 582.566406 303.042969 582.566406 Z M 303.226562 47.835938 C 237.144531 47.835938 171.058594 72.988281 120.746094 123.304688 C 20.128906 223.921875 20.128906 387.644531 120.746094 488.261719 C 203.125 570.628906 328.460938 587.542969 429.125 531.042969 C 405.871094 502.152344 395.390625 463.3125 395.390625 407.15625 C 395.390625 403.808594 397.207031 400.722656 400.128906 399.101562 L 483.078125 353.015625 C 485.863281 351.46875 489.246094 351.46875 492.027344 353.015625 L 548.929688 384.628906 C 578.222656 293.082031 553.980469 191.578125 485.703125 123.304688 C 435.390625 72.988281 369.308594 47.835938 303.226562 47.835938 Z M 303.226562 47.835938 "/>
<path style=" stroke:none;fill-rule:nonzero;fill:rgb(71.369934%,81.568909%,94.898987%);fill-opacity:1;" d="M 303.226562 582.195312 C 301.695312 582.195312 300.164062 581.820312 298.773438 581.054688 C 295.835938 579.421875 294.007812 576.335938 294.007812 572.980469 L 294.007812 38.574219 C 294.007812 35.21875 295.835938 32.125 298.773438 30.5 C 301.714844 28.878906 305.300781 28.980469 308.148438 30.777344 C 326.441406 42.324219 343.363281 56.242188 363.015625 75.902344 C 425.492188 138.382812 459.90625 220.023438 459.90625 305.773438 C 459.90625 333.964844 455.972656 362.417969 448.222656 390.324219 C 447.558594 392.703125 445.972656 394.722656 443.816406 395.910156 L 413.851562 412.554688 C 414.074219 430.09375 415.390625 445.386719 417.863281 459.15625 C 418.25 461.292969 417.863281 463.496094 416.785156 465.375 C 402.007812 491.109375 383.917969 514.742188 363.003906 535.652344 C 343.363281 555.292969 326.441406 569.210938 308.136719 580.777344 C 306.644531 581.71875 304.941406 582.195312 303.226562 582.195312 Z M 312.441406 56.03125 L 312.441406 555.523438 C 324.515625 546.621094 336.542969 536.050781 349.980469 522.621094 C 368.96875 503.632812 385.492188 482.269531 399.152344 459.054688 C 396.617188 443.671875 395.390625 426.65625 395.390625 407.15625 C 395.390625 403.808594 397.207031 400.722656 400.128906 399.101562 L 431.464844 381.691406 C 438.109375 356.585938 441.476562 331.054688 441.476562 305.773438 C 441.476562 224.945312 408.976562 147.9375 349.980469 88.933594 C 336.542969 75.496094 324.507812 64.925781 312.441406 56.03125 Z M 312.441406 56.03125 "/>
<path style=" stroke:none;fill-rule:nonzero;fill:rgb(71.369934%,81.568909%,94.898987%);fill-opacity:1;" d="M 303.042969 582.566406 C 231.769531 582.566406 161.273438 554.84375 107.714844 501.285156 C 103.558594 497.128906 99.355469 492.59375 94.507812 487.007812 C 92.488281 484.695312 91.761719 481.515625 92.5625 478.554688 C 93.363281 475.589844 95.59375 473.21875 98.507812 472.234375 C 152.324219 454.039062 225.03125 444.023438 303.226562 444.023438 C 339.675781 444.023438 375.539062 446.296875 409.824219 450.785156 C 413.816406 451.3125 417.015625 454.371094 417.703125 458.335938 C 422.746094 487.136719 433.328125 509.570312 450.046875 526.914062 C 451.980469 528.925781 452.902344 531.699219 452.554688 534.464844 C 452.203125 537.230469 450.625 539.691406 448.25 541.15625 C 403.179688 568.980469 352.921875 582.566406 303.042969 582.566406 Z M 117.972656 485.421875 C 118.902344 486.390625 119.824219 487.339844 120.746094 488.253906 C 203.125 570.628906 328.46875 587.535156 429.132812 531.035156 C 415.382812 513.910156 406.066406 493.21875 400.839844 468.234375 C 369.34375 464.398438 336.554688 462.453125 303.226562 462.453125 C 234.496094 462.453125 168.007812 470.757812 117.972656 485.421875 Z M 117.972656 485.421875 "/>
</g>
</svg>
