<?xml version="1.0" encoding="UTF-8"?>
<svg xmlns="http://www.w3.org/2000/svg" xmlns:xlink="http://www.w3.org/1999/xlink" width="600pt" height="599.999999pt" viewBox="0 0 600 599.999999" version="1.2">
<defs>
<clipPath id="clip1">
  <path d="M 140 33.75 L 460 33.75 L 460 428 L 140 428 Z M 140 33.75 "/>
</clipPath>
</defs>
<g id="surface1">
<path style=" stroke:none;fill-rule:nonzero;fill:rgb(71.369934%,81.568909%,94.898987%);fill-opacity:1;" d="M 571.875 118.359375 L 478.125 118.359375 L 478.125 137.109375 L 571.875 137.109375 C 577.03125 137.109375 581.25 141.328125 581.25 146.015625 L 581.25 446.484375 L 18.75 446.484375 L 18.75 146.015625 C 18.75 141.328125 22.96875 137.109375 28.125 137.109375 L 121.875 137.109375 L 121.875 118.359375 L 28.125 118.359375 C 12.65625 118.359375 0 131.015625 0 146.015625 L 0 474.609375 C 0 490.078125 12.65625 502.265625 28.125 502.265625 L 253.125 502.265625 L 253.125 521.015625 L 210.9375 521.015625 C 205.78125 521.015625 201.5625 525.234375 201.5625 530.390625 C 201.5625 535.546875 205.78125 539.765625 210.9375 539.765625 L 389.0625 539.765625 C 394.21875 539.765625 398.4375 535.546875 398.4375 530.390625 C 398.4375 525.234375 394.21875 521.015625 389.0625 521.015625 L 346.875 521.015625 L 346.875 502.265625 L 571.875 502.265625 C 587.34375 502.265625 600 489.609375 600 474.609375 L 600 146.015625 C 600 131.015625 587.34375 118.359375 571.875 118.359375 Z M 328.125 521.484375 L 271.875 521.484375 L 271.875 502.734375 L 328.125 502.734375 Z M 328.125 521.484375 "/>
<g clip-path="url(#clip1)" clip-rule="nonzero">
<path style=" stroke:none;fill-rule:nonzero;fill:rgb(71.369934%,81.568909%,94.898987%);fill-opacity:1;" d="M 140.625 62.109375 L 140.625 427.734375 L 459.375 427.734375 L 459.375 62.109375 C 459.375 46.640625 446.71875 33.984375 431.25 33.984375 L 168.75 33.984375 C 153.28125 33.984375 140.625 46.640625 140.625 62.109375 Z M 206.25 108.984375 L 393.75 108.984375 C 398.90625 108.984375 403.125 113.203125 403.125 118.359375 C 403.125 123.515625 398.90625 127.734375 393.75 127.734375 L 206.25 127.734375 C 201.09375 127.734375 196.875 123.515625 196.875 118.359375 C 196.875 113.203125 201.09375 108.984375 206.25 108.984375 Z M 206.25 146.484375 L 393.75 146.484375 C 398.90625 146.484375 403.125 150.703125 403.125 155.859375 C 403.125 161.015625 398.90625 165.234375 393.75 165.234375 L 206.25 165.234375 C 201.09375 165.234375 196.875 161.015625 196.875 155.859375 C 196.875 150.703125 201.09375 146.484375 206.25 146.484375 Z M 206.25 183.984375 L 393.75 183.984375 C 398.90625 183.984375 403.125 188.203125 403.125 193.359375 C 403.125 198.515625 398.90625 202.734375 393.75 202.734375 L 206.25 202.734375 C 201.09375 202.734375 196.875 198.515625 196.875 193.359375 C 196.875 188.203125 201.09375 183.984375 206.25 183.984375 Z M 206.25 221.484375 L 393.75 221.484375 C 398.90625 221.484375 403.125 225.703125 403.125 230.859375 C 403.125 236.015625 398.90625 240.234375 393.75 240.234375 L 206.25 240.234375 C 201.09375 240.234375 196.875 236.015625 196.875 230.859375 C 196.875 225.703125 201.09375 221.484375 206.25 221.484375 Z M 206.25 258.984375 L 393.75 258.984375 C 398.90625 258.984375 403.125 263.203125 403.125 268.359375 C 403.125 273.515625 398.90625 277.734375 393.75 277.734375 L 206.25 277.734375 C 201.09375 277.734375 196.875 273.515625 196.875 268.359375 C 196.875 263.203125 201.09375 258.984375 206.25 258.984375 Z M 206.25 296.953125 L 393.75 296.953125 C 398.90625 296.953125 403.125 301.171875 403.125 306.328125 C 403.125 311.484375 398.90625 315.703125 393.75 315.703125 L 206.25 315.703125 C 201.09375 315.703125 196.875 311.484375 196.875 306.328125 C 196.875 301.171875 201.09375 296.953125 206.25 296.953125 Z M 206.25 333.984375 L 393.75 333.984375 C 398.90625 333.984375 403.125 338.203125 403.125 343.359375 C 403.125 348.515625 398.90625 352.734375 393.75 352.734375 L 206.25 352.734375 C 201.09375 352.734375 196.875 348.515625 196.875 343.359375 C 196.875 338.203125 201.09375 333.984375 206.25 333.984375 Z M 206.25 371.484375 L 393.75 371.484375 C 398.90625 371.484375 403.125 375.703125 403.125 380.859375 C 403.125 386.015625 398.90625 390.234375 393.75 390.234375 L 206.25 390.234375 C 201.09375 390.234375 196.875 386.015625 196.875 380.859375 C 196.875 375.703125 201.09375 371.484375 206.25 371.484375 Z M 206.25 371.484375 "/>
</g>
</g>
</svg>
