<?xml version="1.0" encoding="UTF-8"?>
<svg xmlns="http://www.w3.org/2000/svg" xmlns:xlink="http://www.w3.org/1999/xlink" width="600pt" height="599.999999pt" viewBox="0 0 600 599.999999" version="1.2">
<g id="surface1">
<path style=" stroke:none;fill-rule:nonzero;fill:rgb(71.369934%,81.568909%,94.898987%);fill-opacity:1;" d="M 300.351562 0 C 135.171875 0 0.703125 134.351562 0.644531 299.53125 C 0.613281 352.332031 14.445312 403.875 40.664062 449.296875 L 0 600 L 156.972656 562.910156 C 200.742188 586.789062 250.015625 599.324219 300.175781 599.355469 L 300.292969 599.355469 C 465.441406 599.355469 599.851562 464.972656 599.941406 299.824219 C 600 219.753906 568.863281 144.472656 512.285156 87.832031 C 455.707031 31.222656 380.511719 0.03125 300.351562 0 Z M 300.292969 60 C 364.371094 60.03125 424.59375 85.015625 469.863281 130.253906 C 515.132812 175.554688 540 235.746094 539.941406 299.765625 C 539.882812 431.886719 432.414062 539.355469 300.234375 539.355469 C 260.246094 539.324219 220.632812 529.285156 185.742188 510.234375 L 165.527344 499.21875 L 143.203125 504.492188 L 84.140625 518.4375 L 98.554688 464.882812 L 105.058594 440.859375 L 92.636719 419.296875 C 71.695312 383.058594 60.613281 341.621094 60.644531 299.53125 C 60.703125 167.472656 168.203125 60 300.292969 60 Z M 194.296875 161.25 C 189.285156 161.25 181.1875 163.125 174.316406 170.625 C 167.445312 178.09375 148.066406 196.1875 148.066406 233.027344 C 148.066406 269.867188 174.902344 305.476562 178.652344 310.488281 C 182.371094 315.46875 230.453125 393.457031 306.5625 423.457031 C 369.800781 448.386719 382.648438 443.46875 396.386719 442.207031 C 410.125 440.976562 440.714844 424.128906 446.953125 406.640625 C 453.191406 389.152344 453.207031 374.105469 451.347656 371.015625 C 449.488281 367.894531 444.492188 366.035156 436.992188 362.285156 C 429.523438 358.535156 392.710938 340.457031 385.839844 337.96875 C 378.96875 335.480469 373.945312 334.21875 368.964844 341.71875 C 363.984375 349.21875 349.671875 366.035156 345.292969 371.015625 C 340.914062 376.027344 336.5625 376.699219 329.0625 372.949219 C 321.5625 369.167969 297.449219 361.242188 268.828125 335.742188 C 246.566406 315.914062 231.546875 291.445312 227.167969 283.945312 C 222.816406 276.476562 226.757812 272.371094 230.507812 268.652344 C 233.867188 265.292969 237.949219 259.90625 241.699219 255.527344 C 245.417969 251.148438 246.710938 248.027344 249.199219 243.046875 C 251.6875 238.066406 250.414062 233.671875 248.554688 229.921875 C 246.695312 226.171875 232.128906 189.195312 225.46875 174.375 C 219.859375 161.925781 213.933594 161.636719 208.59375 161.425781 C 204.242188 161.246094 199.277344 161.25 194.296875 161.25 Z M 194.296875 161.25 "/>
</g>
</svg>
