<?xml version="1.0" encoding="UTF-8"?>
<svg xmlns="http://www.w3.org/2000/svg" xmlns:xlink="http://www.w3.org/1999/xlink" width="600pt" height="599.999999pt" viewBox="0 0 600 599.999999" version="1.2">
<g id="surface1">
<path style=" stroke:none;fill-rule:nonzero;fill:rgb(71.369934%,81.568909%,94.898987%);fill-opacity:1;" d="M 119.199219 41.765625 L 139.039062 41.765625 L 139.039062 61.605469 L 119.199219 61.605469 L 119.199219 41.765625 "/>
<path style=" stroke:none;fill-rule:nonzero;fill:rgb(71.369934%,81.568909%,94.898987%);fill-opacity:1;" d="M 158.929688 41.765625 L 178.769531 41.765625 L 178.769531 61.605469 L 158.929688 61.605469 L 158.929688 41.765625 "/>
<path style=" stroke:none;fill-rule:nonzero;fill:rgb(71.369934%,81.568909%,94.898987%);fill-opacity:1;" d="M 198.664062 41.765625 L 218.503906 41.765625 L 218.503906 61.605469 L 198.664062 61.605469 L 198.664062 41.765625 "/>
<path style=" stroke:none;fill-rule:nonzero;fill:rgb(71.369934%,81.568909%,94.898987%);fill-opacity:1;" d="M 19.894531 304.125 L 293.839844 578.074219 L 19.894531 578.074219 Z M 9.945312 597.96875 L 317.859375 597.96875 C 323.308594 597.96875 327.753906 593.523438 327.753906 588.023438 C 327.753906 585.429688 326.695312 582.890625 324.84375 581.039062 L 16.929688 273.125 C 13.066406 269.207031 6.773438 269.207031 2.910156 273.125 C 1.058594 274.976562 0 277.515625 0 280.105469 L 0 588.023438 C 0 593.523438 4.445312 597.96875 9.945312 597.96875 "/>
<path style=" stroke:none;fill-rule:nonzero;fill:rgb(71.369934%,81.568909%,94.898987%);fill-opacity:1;" d="M 79.464844 518.503906 L 79.464844 453.109375 L 144.859375 518.503906 Z M 175.859375 521.414062 L 76.554688 422.109375 C 72.640625 418.191406 66.398438 418.191406 62.480469 422.109375 C 60.628906 423.960938 59.574219 426.5 59.574219 429.089844 L 59.574219 528.449219 C 59.574219 533.898438 64.070312 538.394531 69.519531 538.394531 L 168.878906 538.394531 C 174.328125 538.394531 178.769531 533.898438 178.769531 528.449219 C 178.769531 525.804688 177.710938 523.316406 175.859375 521.414062 "/>
<path style=" stroke:none;fill-rule:nonzero;fill:rgb(71.369934%,81.568909%,94.898987%);fill-opacity:1;" d="M 407.21875 236.300781 L 381.507812 210.589844 L 526.417969 65.730469 L 552.128906 91.441406 Z M 536.3125 399.359375 L 536.3125 419.199219 L 556.203125 419.199219 L 556.203125 399.359375 L 576.042969 399.359375 L 576.042969 458.929688 L 278.074219 458.929688 L 278.074219 399.359375 L 297.96875 399.359375 L 297.96875 419.199219 L 317.859375 419.199219 L 317.859375 399.359375 L 337.699219 399.359375 L 337.699219 419.199219 L 357.59375 419.199219 L 357.59375 399.359375 L 377.433594 399.359375 L 377.433594 419.199219 L 397.328125 419.199219 L 397.328125 399.359375 L 417.167969 399.359375 L 417.167969 419.199219 L 437.007812 419.199219 L 437.007812 399.359375 L 456.898438 399.359375 L 456.898438 419.199219 L 476.738281 419.199219 L 476.738281 399.359375 L 496.578125 399.359375 L 496.578125 419.199219 L 516.472656 419.199219 L 516.472656 399.359375 Z M 373.625 230.746094 L 387.117188 244.238281 L 370.183594 247.621094 Z M 437.007812 339.734375 L 238.394531 339.734375 L 238.394531 309.46875 C 298.234375 304.179688 342.515625 251.433594 337.277344 191.542969 C 336.960938 187.945312 336.484375 184.347656 335.796875 180.800781 L 383.253906 180.800781 L 360.449219 203.605469 C 359.074219 204.980469 358.121094 206.726562 357.753906 208.683594 L 347.804688 258.308594 C 346.746094 263.707031 350.238281 268.945312 355.636719 270.003906 C 356.269531 270.160156 356.90625 270.214844 357.59375 270.214844 C 358.230469 270.214844 358.863281 270.160156 359.550781 270.003906 L 409.230469 260.054688 C 411.136719 259.683594 412.882812 258.734375 414.308594 257.359375 L 437.007812 234.609375 Z M 218.503906 170.910156 L 218.503906 289.472656 C 169.457031 284.074219 134.011719 239.898438 139.460938 190.855469 C 144.859375 141.757812 189.035156 106.363281 238.078125 111.757812 C 268.394531 115.09375 294.898438 133.664062 308.390625 160.960938 L 228.449219 160.960938 C 222.945312 160.960938 218.503906 165.40625 218.503906 170.910156 Z M 317.859375 200.695312 C 317.753906 246.195312 283.578125 284.394531 238.394531 289.472656 L 238.394531 180.800781 L 315.535156 180.800781 C 317.015625 187.308594 317.808594 193.976562 317.859375 200.695312 Z M 545.039062 47.109375 C 552.023438 39.859375 563.503906 39.59375 570.753906 46.527344 C 578 53.457031 578.265625 64.988281 571.28125 72.238281 C 571.125 72.398438 570.964844 72.609375 570.753906 72.765625 L 566.152344 77.371094 L 540.492188 51.710938 Z M 584.773438 86.839844 C 599.640625 71.972656 599.691406 47.902344 584.828125 33.035156 C 570.011719 18.167969 545.886719 18.167969 531.074219 32.980469 C 531.074219 33.035156 531.019531 33.035156 531.019531 33.035156 L 516.101562 47.953125 C 514.195312 22.082031 492.714844 2.085938 466.84375 2.03125 L 129.089844 2.03125 C 101.6875 2.085938 79.464844 24.304688 79.464844 51.710938 L 79.464844 309.945312 L 99.304688 309.945312 L 99.304688 51.710938 C 99.304688 35.257812 112.691406 21.925781 129.089844 21.925781 L 466.84375 21.925781 C 483.246094 21.925781 496.578125 35.257812 496.578125 51.710938 L 496.578125 67.425781 L 403.144531 160.960938 L 330.082031 160.960938 C 308.179688 104.777344 244.851562 77 188.664062 98.957031 C 132.476562 120.914062 104.703125 184.242188 126.65625 240.425781 C 141.734375 278.941406 177.289062 305.714844 218.503906 309.46875 L 218.503906 349.625 C 218.503906 355.179688 222.945312 359.625 228.449219 359.625 L 446.953125 359.625 C 452.453125 359.625 456.898438 355.179688 456.898438 349.625 L 456.898438 214.714844 L 496.578125 174.980469 L 496.578125 379.464844 L 268.183594 379.464844 C 262.679688 379.464844 258.234375 383.910156 258.234375 389.359375 L 258.234375 468.878906 C 258.234375 474.328125 262.679688 478.769531 268.183594 478.769531 L 496.578125 478.769531 L 496.578125 488.71875 C 496.578125 505.171875 483.246094 518.503906 466.84375 518.503906 L 307.914062 518.503906 L 307.914062 538.394531 L 466.84375 538.394531 C 494.199219 538.34375 516.472656 516.121094 516.472656 488.71875 L 516.472656 478.769531 L 585.992188 478.769531 C 591.492188 478.769531 595.9375 474.328125 595.9375 468.878906 L 595.9375 389.359375 C 595.9375 383.910156 591.492188 379.464844 585.992188 379.464844 L 516.472656 379.464844 L 516.472656 155.140625 L 584.773438 86.839844 "/>
</g>
</svg>
