<?xml version="1.0" encoding="UTF-8"?>
<svg xmlns="http://www.w3.org/2000/svg" xmlns:xlink="http://www.w3.org/1999/xlink" width="600pt" height="599.999999pt" viewBox="0 0 600 599.999999" version="1.2">
<defs>
<clipPath id="clip1">
  <path d="M 0 152 L 600 152 L 600 564.75 L 0 564.75 Z M 0 152 "/>
</clipPath>
<clipPath id="clip2">
  <path d="M 304 35.25 L 324 35.25 L 324 204 L 304 204 Z M 304 35.25 "/>
</clipPath>
</defs>
<g id="surface1">
<path style=" stroke:none;fill-rule:nonzero;fill:rgb(71.369934%,81.568909%,94.898987%);fill-opacity:1;" d="M 305.074219 428.867188 C 305.074219 429.480469 305.042969 430.089844 304.984375 430.703125 C 304.925781 431.3125 304.835938 431.917969 304.714844 432.523438 C 304.59375 433.125 304.445312 433.71875 304.269531 434.304688 C 304.089844 434.894531 303.882812 435.472656 303.648438 436.039062 C 303.414062 436.605469 303.152344 437.160156 302.863281 437.699219 C 302.570312 438.242188 302.257812 438.769531 301.914062 439.277344 C 301.574219 439.789062 301.210938 440.28125 300.820312 440.757812 C 300.429688 441.230469 300.019531 441.683594 299.585938 442.117188 C 299.152344 442.554688 298.695312 442.964844 298.222656 443.355469 C 297.746094 443.742188 297.253906 444.109375 296.746094 444.449219 C 296.234375 444.789062 295.707031 445.105469 295.167969 445.394531 C 294.625 445.683594 294.070312 445.945312 293.503906 446.183594 C 292.9375 446.417969 292.359375 446.625 291.773438 446.800781 C 291.183594 446.980469 290.589844 447.128906 289.988281 447.25 C 289.386719 447.367188 288.78125 447.457031 288.167969 447.519531 C 287.558594 447.578125 286.945312 447.609375 286.332031 447.609375 C 285.71875 447.609375 285.105469 447.578125 284.496094 447.519531 C 283.882812 447.457031 283.277344 447.367188 282.675781 447.25 C 282.074219 447.128906 281.476562 446.980469 280.890625 446.800781 C 280.304688 446.625 279.726562 446.417969 279.160156 446.183594 C 278.589844 445.945312 278.039062 445.683594 277.496094 445.394531 C 276.953125 445.105469 276.429688 444.789062 275.917969 444.449219 C 275.40625 444.109375 274.914062 443.742188 274.441406 443.355469 C 273.964844 442.964844 273.511719 442.554688 273.078125 442.117188 C 272.644531 441.683594 272.230469 441.230469 271.84375 440.757812 C 271.453125 440.28125 271.089844 439.789062 270.746094 439.277344 C 270.40625 438.769531 270.089844 438.242188 269.800781 437.699219 C 269.511719 437.160156 269.25 436.605469 269.015625 436.039062 C 268.78125 435.472656 268.574219 434.894531 268.394531 434.304688 C 268.21875 433.71875 268.066406 433.125 267.949219 432.523438 C 267.828125 431.917969 267.738281 431.3125 267.679688 430.703125 C 267.617188 430.089844 267.589844 429.480469 267.589844 428.867188 C 267.589844 428.25 267.617188 427.640625 267.679688 427.027344 C 267.738281 426.417969 267.828125 425.8125 267.949219 425.207031 C 268.066406 424.605469 268.21875 424.011719 268.394531 423.425781 C 268.574219 422.835938 268.78125 422.257812 269.015625 421.691406 C 269.25 421.125 269.511719 420.570312 269.800781 420.03125 C 270.089844 419.488281 270.40625 418.960938 270.746094 418.453125 C 271.089844 417.941406 271.453125 417.449219 271.84375 416.976562 C 272.230469 416.5 272.644531 416.046875 273.078125 415.613281 C 273.511719 415.175781 273.964844 414.765625 274.441406 414.375 C 274.914062 413.988281 275.40625 413.621094 275.917969 413.28125 C 276.429688 412.941406 276.953125 412.625 277.496094 412.335938 C 278.039062 412.046875 278.589844 411.785156 279.160156 411.546875 C 279.726562 411.3125 280.304688 411.105469 280.890625 410.929688 C 281.476562 410.75 282.074219 410.601562 282.675781 410.480469 C 283.277344 410.363281 283.882812 410.273438 284.496094 410.210938 C 285.105469 410.152344 285.71875 410.121094 286.332031 410.121094 C 286.945312 410.121094 287.558594 410.152344 288.167969 410.210938 C 288.78125 410.273438 289.386719 410.363281 289.988281 410.480469 C 290.589844 410.601562 291.183594 410.75 291.773438 410.929688 C 292.359375 411.105469 292.9375 411.3125 293.503906 411.546875 C 294.070312 411.785156 294.625 412.046875 295.167969 412.335938 C 295.707031 412.625 296.234375 412.941406 296.746094 413.28125 C 297.253906 413.621094 297.746094 413.988281 298.222656 414.375 C 298.695312 414.765625 299.152344 415.175781 299.585938 415.613281 C 300.019531 416.046875 300.429688 416.5 300.820312 416.976562 C 301.210938 417.449219 301.574219 417.941406 301.914062 418.453125 C 302.257812 418.960938 302.570312 419.488281 302.863281 420.03125 C 303.152344 420.570312 303.414062 421.125 303.648438 421.691406 C 303.882812 422.257812 304.089844 422.835938 304.269531 423.425781 C 304.445312 424.011719 304.59375 424.605469 304.714844 425.207031 C 304.835938 425.8125 304.925781 426.417969 304.984375 427.027344 C 305.042969 427.640625 305.074219 428.25 305.074219 428.867188 Z M 305.074219 428.867188 "/>
<path style=" stroke:none;fill-rule:nonzero;fill:rgb(71.369934%,81.568909%,94.898987%);fill-opacity:1;" d="M 390.203125 428.867188 C 390.203125 429.480469 390.171875 430.089844 390.113281 430.703125 C 390.050781 431.3125 389.960938 431.917969 389.84375 432.523438 C 389.722656 433.125 389.574219 433.71875 389.394531 434.304688 C 389.21875 434.894531 389.011719 435.472656 388.777344 436.039062 C 388.539062 436.605469 388.277344 437.160156 387.988281 437.699219 C 387.699219 438.242188 387.382812 438.769531 387.042969 439.277344 C 386.703125 439.789062 386.335938 440.28125 385.949219 440.757812 C 385.558594 441.230469 385.148438 441.683594 384.710938 442.117188 C 384.277344 442.554688 383.824219 442.964844 383.351562 443.355469 C 382.875 443.742188 382.382812 444.109375 381.871094 444.449219 C 381.363281 444.789062 380.835938 445.105469 380.292969 445.394531 C 379.753906 445.683594 379.199219 445.945312 378.632812 446.183594 C 378.066406 446.417969 377.488281 446.625 376.898438 446.800781 C 376.3125 446.980469 375.71875 447.128906 375.117188 447.25 C 374.511719 447.367188 373.90625 447.457031 373.296875 447.519531 C 372.683594 447.578125 372.074219 447.609375 371.460938 447.609375 C 370.84375 447.609375 370.234375 447.578125 369.621094 447.519531 C 369.011719 447.457031 368.40625 447.367188 367.800781 447.25 C 367.199219 447.128906 366.605469 446.980469 366.019531 446.800781 C 365.429688 446.625 364.851562 446.417969 364.285156 446.183594 C 363.71875 445.945312 363.164062 445.683594 362.625 445.394531 C 362.082031 445.105469 361.554688 444.789062 361.046875 444.449219 C 360.535156 444.109375 360.042969 443.742188 359.570312 443.355469 C 359.09375 442.964844 358.640625 442.554688 358.207031 442.117188 C 357.769531 441.683594 357.359375 441.230469 356.96875 440.757812 C 356.582031 440.28125 356.214844 439.789062 355.875 439.277344 C 355.535156 438.769531 355.21875 438.242188 354.929688 437.699219 C 354.640625 437.160156 354.378906 436.605469 354.140625 436.039062 C 353.90625 435.472656 353.699219 434.894531 353.523438 434.304688 C 353.34375 433.71875 353.195312 433.125 353.074219 432.523438 C 352.957031 431.917969 352.867188 431.3125 352.804688 430.703125 C 352.746094 430.089844 352.714844 429.480469 352.714844 428.867188 C 352.714844 428.25 352.746094 427.640625 352.804688 427.027344 C 352.867188 426.417969 352.957031 425.8125 353.074219 425.207031 C 353.195312 424.605469 353.34375 424.011719 353.523438 423.425781 C 353.699219 422.835938 353.90625 422.257812 354.140625 421.691406 C 354.378906 421.125 354.640625 420.570312 354.929688 420.03125 C 355.21875 419.488281 355.535156 418.960938 355.875 418.453125 C 356.214844 417.941406 356.582031 417.449219 356.96875 416.976562 C 357.359375 416.5 357.769531 416.046875 358.207031 415.613281 C 358.640625 415.175781 359.09375 414.765625 359.570312 414.375 C 360.042969 413.988281 360.535156 413.621094 361.046875 413.28125 C 361.554688 412.941406 362.082031 412.625 362.625 412.335938 C 363.164062 412.046875 363.71875 411.785156 364.285156 411.546875 C 364.851562 411.3125 365.429688 411.105469 366.019531 410.929688 C 366.605469 410.75 367.199219 410.601562 367.800781 410.480469 C 368.40625 410.363281 369.011719 410.273438 369.621094 410.210938 C 370.234375 410.152344 370.84375 410.121094 371.460938 410.121094 C 372.074219 410.121094 372.683594 410.152344 373.296875 410.210938 C 373.90625 410.273438 374.511719 410.363281 375.117188 410.480469 C 375.71875 410.601562 376.3125 410.75 376.898438 410.929688 C 377.488281 411.105469 378.066406 411.3125 378.632812 411.546875 C 379.199219 411.785156 379.753906 412.046875 380.292969 412.335938 C 380.835938 412.625 381.363281 412.941406 381.871094 413.28125 C 382.382812 413.621094 382.875 413.988281 383.351562 414.375 C 383.824219 414.765625 384.277344 415.175781 384.710938 415.613281 C 385.148438 416.046875 385.558594 416.5 385.949219 416.976562 C 386.335938 417.449219 386.703125 417.941406 387.042969 418.453125 C 387.382812 418.960938 387.699219 419.488281 387.988281 420.03125 C 388.277344 420.570312 388.539062 421.125 388.777344 421.691406 C 389.011719 422.257812 389.21875 422.835938 389.394531 423.425781 C 389.574219 424.011719 389.722656 424.605469 389.84375 425.207031 C 389.960938 425.8125 390.050781 426.417969 390.113281 427.027344 C 390.171875 427.640625 390.203125 428.25 390.203125 428.867188 Z M 390.203125 428.867188 "/>
<path style=" stroke:none;fill-rule:nonzero;fill:rgb(71.369934%,81.568909%,94.898987%);fill-opacity:1;" d="M 173.480469 203.941406 C 168.304688 203.941406 164.109375 208.140625 164.109375 213.3125 C 164.109375 218.484375 168.304688 222.683594 173.480469 222.683594 L 208.503906 222.683594 L 259.617188 391.375 L 398.402344 391.375 C 403.574219 391.375 407.773438 387.175781 407.773438 382.003906 C 407.773438 376.828125 403.574219 372.628906 398.402344 372.628906 L 273.519531 372.628906 L 267.839844 353.886719 L 373.308594 353.886719 C 394.851562 353.886719 399.230469 336.679688 406.800781 315.453125 L 419.484375 279.859375 C 427.046875 258.632812 415.710938 241.425781 394.179688 241.425781 L 233.765625 241.425781 L 222.40625 203.941406 Z M 394.179688 260.171875 C 397.949219 260.171875 400.800781 261.160156 402.015625 262.878906 C 403.496094 264.984375 403.429688 269.078125 401.832031 273.566406 C 401.832031 273.566406 388.066406 312.214844 387.539062 313.707031 C 380.03125 335.144531 378.472656 335.144531 373.308594 335.144531 L 263.585938 335.144531 L 240.902344 260.171875 Z M 394.179688 260.171875 "/>
<g clip-path="url(#clip1)" clip-rule="nonzero">
<path style=" stroke:none;fill-rule:nonzero;fill:rgb(71.369934%,81.568909%,94.898987%);fill-opacity:1;" d="M 562.40625 152.394531 L 398.402344 152.394531 L 398.402344 171.140625 L 562.40625 171.140625 C 572.742188 171.140625 581.152344 179.507812 581.152344 189.792969 L 581.152344 471.113281 C 581.152344 481.402344 572.742188 489.773438 562.40625 489.773438 L 37.59375 489.773438 C 27.257812 489.773438 18.847656 481.402344 18.847656 471.113281 L 18.847656 189.792969 C 18.847656 179.507812 27.257812 171.140625 37.59375 171.140625 L 229.710938 171.140625 L 229.710938 152.394531 L 37.59375 152.394531 C 16.890625 152.394531 0.105469 169.136719 0.105469 189.792969 L 0.105469 471.113281 C 0.105469 491.769531 16.890625 508.515625 37.59375 508.515625 L 243.769531 508.515625 L 243.769531 546 L 187.539062 546 C 182.363281 546 178.167969 550.199219 178.167969 555.375 C 178.167969 560.546875 182.363281 564.746094 187.539062 564.746094 L 412.460938 564.746094 C 417.632812 564.746094 421.832031 560.546875 421.832031 555.375 C 421.832031 550.199219 417.632812 546 412.460938 546 L 356.230469 546 L 356.230469 508.515625 L 562.40625 508.515625 C 583.109375 508.515625 599.894531 491.769531 599.894531 471.113281 L 599.894531 189.792969 C 599.894531 169.136719 583.109375 152.394531 562.40625 152.394531 Z M 337.488281 546.007812 L 262.511719 546.007812 L 262.511719 508.519531 L 337.488281 508.519531 Z M 337.488281 546.007812 "/>
</g>
<g clip-path="url(#clip2)" clip-rule="nonzero">
<path style=" stroke:none;fill-rule:nonzero;fill:rgb(71.369934%,81.568909%,94.898987%);fill-opacity:1;" d="M 314.058594 203.941406 C 319.230469 203.941406 323.429688 199.742188 323.429688 194.570312 L 323.429688 44.621094 C 323.429688 39.449219 319.230469 35.25 314.058594 35.25 C 308.878906 35.25 304.6875 39.449219 304.6875 44.621094 L 304.6875 194.570312 C 304.6875 199.742188 308.878906 203.941406 314.058594 203.941406 Z M 314.058594 203.941406 "/>
</g>
<path style=" stroke:none;fill-rule:nonzero;fill:rgb(71.369934%,81.568909%,94.898987%);fill-opacity:1;" d="M 370.289062 222.683594 C 375.460938 222.683594 379.660156 218.484375 379.660156 213.3125 L 379.660156 100.851562 C 379.660156 95.679688 375.460938 91.480469 370.289062 91.480469 C 365.109375 91.480469 360.914062 95.679688 360.914062 100.851562 L 360.914062 213.3125 C 360.914062 218.484375 365.109375 222.683594 370.289062 222.683594 Z M 370.289062 222.683594 "/>
<path style=" stroke:none;fill-rule:nonzero;fill:rgb(71.369934%,81.568909%,94.898987%);fill-opacity:1;" d="M 257.828125 222.683594 C 263 222.683594 267.199219 218.484375 267.199219 213.3125 L 267.199219 100.851562 C 267.199219 95.679688 263 91.480469 257.828125 91.480469 C 252.648438 91.480469 248.457031 95.679688 248.457031 100.851562 L 248.457031 213.3125 C 248.457031 218.484375 252.648438 222.683594 257.828125 222.683594 Z M 257.828125 222.683594 "/>
</g>
</svg>
