<?xml version="1.0" encoding="UTF-8"?>
<svg xmlns="http://www.w3.org/2000/svg" xmlns:xlink="http://www.w3.org/1999/xlink" width="600pt" height="599.999999pt" viewBox="0 0 600 599.999999" version="1.2">
<defs>
<clipPath id="clip1">
  <path d="M 0 68.726562 L 600 68.726562 L 600 539.726562 L 0 539.726562 Z M 0 68.726562 "/>
</clipPath>
</defs>
<g id="surface1">
<g clip-path="url(#clip1)" clip-rule="nonzero">
<path style=" stroke:none;fill-rule:evenodd;fill:rgb(71.369934%,81.568909%,94.898987%);fill-opacity:1;" d="M 515.496094 111.546875 L 84.503906 111.546875 L 286.9375 267.175781 C 294.636719 273.097656 305.359375 273.097656 313.0625 267.175781 Z M 42.945312 133.617188 L 42.945312 496.910156 L 557.054688 496.910156 L 557.054688 133.613281 L 339.183594 301.113281 C 316.082031 318.875 283.917969 318.875 260.816406 301.113281 Z M 0.101562 111.546875 C 0.101562 87.898438 19.28125 68.726562 42.945312 68.726562 L 557.054688 68.726562 C 580.71875 68.726562 599.898438 87.898438 599.898438 111.546875 L 599.898438 496.910156 C 599.898438 520.558594 580.71875 539.726562 557.054688 539.726562 L 42.945312 539.726562 C 19.28125 539.726562 0.101562 520.558594 0.101562 496.910156 Z M 0.101562 111.546875 "/>
</g>
</g>
</svg>
