<?xml version="1.0" encoding="UTF-8"?>
<svg xmlns="http://www.w3.org/2000/svg" xmlns:xlink="http://www.w3.org/1999/xlink" width="600pt" height="599.999999pt" viewBox="0 0 600 599.999999" version="1.2">
<defs>
<clipPath id="clip1">
  <path d="M 23 30 L 577 30 L 577 569 L 23 569 Z M 23 30 "/>
</clipPath>
</defs>
<g id="surface1">
<g clip-path="url(#clip1)" clip-rule="nonzero">
<path style=" stroke:none;fill-rule:nonzero;fill:rgb(71.369934%,81.568909%,94.898987%);fill-opacity:1;" d="M 389.234375 567.878906 C 388.3125 568.113281 387.378906 568.230469 386.429688 568.234375 L 384.363281 566.339844 L 384.363281 550.242188 C 384.363281 535.253906 384.613281 512.566406 384.613281 486.601562 C 384.765625 478.941406 384.03125 471.363281 382.421875 463.867188 C 380.8125 456.375 378.363281 449.167969 375.078125 442.242188 C 432.632812 431.847656 497.128906 400.757812 497.128906 289.425781 C 497.183594 285.789062 497.082031 282.15625 496.824219 278.523438 C 496.5625 274.894531 496.140625 271.285156 495.5625 267.691406 C 494.984375 264.097656 494.25 260.539062 493.359375 257.007812 C 492.46875 253.480469 491.425781 250 490.230469 246.5625 C 489.035156 243.125 487.6875 239.746094 486.195312 236.429688 C 484.703125 233.109375 483.066406 229.863281 481.289062 226.6875 C 479.511719 223.511719 477.597656 220.421875 475.550781 217.414062 C 473.5 214.40625 471.324219 211.496094 469.019531 208.679688 C 470.753906 202.191406 471.945312 195.609375 472.59375 188.925781 C 473.238281 182.242188 473.332031 175.550781 472.875 168.851562 C 472.414062 162.152344 471.40625 155.539062 469.855469 149.007812 C 468.300781 142.472656 466.222656 136.113281 463.617188 129.925781 C 463.277344 129.058594 462.84375 128.242188 462.320312 127.472656 C 461.796875 126.703125 461.199219 126 460.519531 125.363281 C 459.839844 124.726562 459.101562 124.171875 458.300781 123.695312 C 457.5 123.222656 456.65625 122.84375 455.769531 122.558594 C 452.386719 121.609375 448.9375 121.179688 445.425781 121.269531 C 438.609375 121.875 431.875 122.957031 425.214844 124.523438 C 418.550781 126.085938 412.035156 128.109375 405.664062 130.597656 C 399.292969 133.089844 393.125 136.015625 387.171875 139.382812 C 381.214844 142.746094 375.527344 146.519531 370.105469 150.691406 C 347.082031 144.964844 323.707031 142.039062 299.984375 141.910156 C 276.246094 141.957031 252.863281 144.867188 229.835938 150.640625 C 224.410156 146.464844 218.714844 142.691406 212.75 139.324219 C 206.785156 135.957031 200.613281 133.027344 194.230469 130.539062 C 187.851562 128.050781 181.324219 126.023438 174.65625 124.464844 C 167.988281 122.902344 161.242188 121.820312 154.417969 121.21875 C 150.90625 121.128906 147.457031 121.558594 144.070312 122.507812 C 143.183594 122.792969 142.339844 123.175781 141.539062 123.652344 C 140.738281 124.125 139.996094 124.683594 139.320312 125.324219 C 138.640625 125.960938 138.039062 126.667969 137.519531 127.441406 C 136.996094 128.210938 136.566406 129.03125 136.226562 129.898438 C 133.621094 136.089844 131.546875 142.453125 130 148.984375 C 128.453125 155.519531 127.453125 162.136719 127.003906 168.835938 C 126.550781 175.535156 126.65625 182.226562 127.316406 188.90625 C 127.972656 195.589844 129.175781 202.171875 130.925781 208.652344 C 128.621094 211.46875 126.441406 214.382812 124.390625 217.386719 C 122.339844 220.394531 120.425781 223.484375 118.648438 226.660156 C 116.867188 229.835938 115.230469 233.082031 113.738281 236.402344 C 112.242188 239.71875 110.898438 243.097656 109.699219 246.535156 C 108.503906 249.96875 107.457031 253.453125 106.566406 256.980469 C 105.675781 260.511719 104.9375 264.070312 104.359375 267.664062 C 103.78125 271.257812 103.359375 274.867188 103.097656 278.5 C 102.835938 282.128906 102.734375 285.761719 102.792969 289.402344 C 102.792969 400.683594 167.234375 431.921875 224.664062 442.417969 C 221.484375 448.855469 219.144531 455.582031 217.652344 462.605469 C 210.714844 465.136719 203.558594 466.449219 196.175781 466.542969 C 193.648438 466.597656 191.136719 466.425781 188.640625 466.019531 C 186.140625 465.617188 183.703125 464.992188 181.320312 464.140625 C 178.9375 463.292969 176.652344 462.234375 174.464844 460.964844 C 172.273438 459.699219 170.21875 458.242188 168.296875 456.601562 C 167.542969 455.601562 166.640625 454.761719 165.59375 454.078125 C 163.867188 452.175781 162.246094 450.191406 160.726562 448.121094 L 160.222656 447.515625 C 160.085938 447.277344 159.9375 447.050781 159.765625 446.835938 L 157.648438 444.109375 C 156.960938 443.304688 156.320312 442.464844 155.730469 441.585938 C 154.296875 439.09375 152.722656 436.691406 151.011719 434.382812 C 149.296875 432.074219 147.457031 429.871094 145.484375 427.777344 C 143.515625 425.683594 141.429688 423.710938 139.226562 421.863281 C 137.023438 420.015625 134.722656 418.300781 132.320312 416.71875 C 129.917969 415.140625 127.433594 413.703125 124.863281 412.414062 C 122.292969 411.125 119.65625 409.992188 116.953125 409.011719 C 114.25 408.03125 111.5 407.210938 108.699219 406.550781 C 105.902344 405.894531 103.074219 405.402344 100.21875 405.074219 C 86.820312 405.074219 77.9375 409.792969 75.261719 418.421875 C 71.074219 431.921875 85.707031 441.988281 92.773438 446.65625 C 95.816406 448.75 98.660156 451.082031 101.304688 453.65625 C 103.949219 456.226562 106.359375 459.007812 108.535156 461.988281 C 110.707031 464.972656 112.617188 468.113281 114.257812 471.421875 C 115.898438 474.726562 117.25 478.148438 118.308594 481.683594 C 119.074219 483.667969 119.917969 485.621094 120.839844 487.539062 C 121.761719 489.457031 122.757812 491.335938 123.828125 493.175781 C 124.898438 495.015625 126.039062 496.808594 127.253906 498.558594 C 128.464844 500.308594 129.746094 502.003906 131.09375 503.652344 C 132.441406 505.300781 133.851562 506.890625 135.324219 508.425781 C 136.800781 509.960938 138.332031 511.4375 139.921875 512.851562 C 141.511719 514.265625 143.15625 515.613281 144.855469 516.894531 C 146.554688 518.179688 148.300781 519.394531 150.09375 520.539062 C 151.886719 521.683594 153.726562 522.753906 155.605469 523.753906 C 157.484375 524.75 159.398438 525.675781 161.351562 526.519531 C 163.304688 527.367188 165.289062 528.136719 167.300781 528.824219 C 169.316406 529.515625 171.351562 530.121094 173.414062 530.652344 C 175.476562 531.179688 177.554688 531.625 179.652344 531.984375 C 181.75 532.347656 183.859375 532.628906 185.976562 532.824219 C 188.097656 533.019531 190.21875 533.128906 192.347656 533.15625 C 194.476562 533.183594 196.601562 533.125 198.726562 532.980469 C 204.300781 532.972656 209.851562 532.613281 215.378906 531.898438 L 215.683594 566.441406 L 213.4375 568.257812 C 212.65625 568.257812 211.722656 568.257812 212.527344 568.460938 C 207.394531 566.746094 202.3125 564.882812 197.289062 562.871094 C 192.265625 560.859375 187.300781 558.699219 182.402344 556.398438 C 177.503906 554.09375 172.679688 551.648438 167.925781 549.0625 C 163.167969 546.476562 158.496094 543.75 153.898438 540.890625 C 149.304688 538.027344 144.796875 535.035156 140.378906 531.910156 C 135.960938 528.785156 131.636719 525.53125 127.40625 522.152344 C 123.179688 518.769531 119.054688 515.269531 115.03125 511.648438 C 111.007812 508.027344 107.09375 504.289062 103.289062 500.4375 C 99.488281 496.585938 95.800781 492.628906 92.230469 488.558594 C 88.65625 484.492188 85.207031 480.324219 81.882812 476.050781 C 78.554688 471.78125 75.359375 467.417969 72.289062 462.960938 C 69.21875 458.5 66.28125 453.957031 63.476562 449.328125 C 60.671875 444.695312 58.007812 439.988281 55.480469 435.199219 C 52.953125 430.414062 50.570312 425.554688 48.328125 420.628906 C 46.085938 415.703125 43.988281 410.714844 42.039062 405.664062 C 40.089844 400.613281 38.292969 395.511719 36.640625 390.355469 C 34.992188 385.199219 33.496094 380 32.152344 374.757812 C 30.804688 369.511719 29.617188 364.234375 28.582031 358.921875 C 27.546875 353.609375 26.667969 348.269531 25.949219 342.90625 C 25.226562 337.539062 24.664062 332.160156 24.257812 326.761719 C 23.851562 321.363281 23.605469 315.957031 23.515625 310.542969 C 23.429688 305.132812 23.5 299.722656 23.730469 294.3125 C 23.957031 288.90625 24.34375 283.507812 24.890625 278.125 C 25.4375 272.738281 26.140625 267.371094 27.003906 262.027344 C 27.863281 256.683594 28.878906 251.371094 30.054688 246.085938 C 31.226562 240.800781 32.554688 235.554688 34.035156 230.347656 C 35.515625 225.140625 37.148438 219.984375 38.929688 214.871094 C 40.714844 209.761719 42.644531 204.707031 44.726562 199.710938 C 46.808594 194.714844 49.03125 189.78125 51.402344 184.914062 C 53.769531 180.046875 56.28125 175.253906 58.933594 170.535156 C 61.582031 165.816406 64.371094 161.175781 67.292969 156.621094 C 70.21875 152.066406 73.273438 147.601562 76.457031 143.222656 C 79.644531 138.847656 82.953125 134.566406 86.390625 130.386719 C 89.828125 126.203125 93.382812 122.125 97.058594 118.152344 C 100.734375 114.179688 104.523438 110.316406 108.425781 106.566406 C 112.328125 102.8125 116.339844 99.179688 120.457031 95.664062 C 124.570312 92.148438 128.785156 88.757812 133.101562 85.488281 C 137.417969 82.222656 141.824219 79.082031 146.324219 76.074219 C 150.824219 73.0625 155.40625 70.1875 160.074219 67.449219 C 164.742188 64.707031 169.484375 62.105469 174.308594 59.644531 C 179.128906 57.183594 184.015625 54.863281 188.972656 52.6875 C 193.929688 50.515625 198.945312 48.484375 204.023438 46.605469 C 209.097656 44.726562 214.222656 42.996094 219.402344 41.414062 C 224.578125 39.835938 229.796875 38.410156 235.058594 37.136719 C 240.320312 35.863281 245.613281 34.746094 250.941406 33.78125 C 256.265625 32.820312 261.617188 32.015625 266.992188 31.367188 C 272.367188 30.71875 277.753906 30.226562 283.15625 29.894531 C 288.558594 29.5625 293.96875 29.390625 299.378906 29.375 C 304.792969 29.359375 310.203125 29.503906 315.605469 29.808594 C 321.011719 30.109375 326.402344 30.570312 331.777344 31.191406 C 337.15625 31.808594 342.511719 32.585938 347.84375 33.519531 C 353.175781 34.453125 358.472656 35.542969 363.742188 36.785156 C 369.011719 38.03125 374.238281 39.429688 379.421875 40.980469 C 384.609375 42.53125 389.746094 44.234375 394.832031 46.085938 C 399.917969 47.941406 404.941406 49.941406 409.910156 52.089844 C 414.878906 54.238281 419.78125 56.527344 424.617188 58.964844 C 429.449219 61.402344 434.207031 63.976562 438.890625 66.691406 C 443.574219 69.40625 448.171875 72.257812 452.6875 75.242188 C 457.203125 78.226562 461.628906 81.339844 465.960938 84.585938 C 470.292969 87.832031 474.527344 91.199219 478.660156 94.691406 C 482.796875 98.1875 486.824219 101.796875 490.75 105.527344 C 494.671875 109.257812 498.480469 113.097656 502.179688 117.050781 C 505.875 121.003906 509.457031 125.0625 512.914062 129.226562 C 516.375 133.390625 519.707031 137.652344 522.917969 142.011719 C 526.125 146.371094 529.203125 150.820312 532.152344 155.359375 C 535.101562 159.898438 537.914062 164.523438 540.589844 169.226562 C 543.265625 173.933594 545.804688 178.710938 548.199219 183.566406 C 550.59375 188.417969 552.847656 193.339844 554.953125 198.324219 C 557.0625 203.3125 559.019531 208.355469 560.832031 213.457031 C 562.644531 218.558594 564.304688 223.707031 565.8125 228.90625 C 567.320312 234.105469 568.675781 239.34375 569.878906 244.621094 C 571.082031 249.898438 572.125 255.207031 573.015625 260.546875 C 573.90625 265.886719 574.640625 271.246094 575.214844 276.628906 C 575.789062 282.011719 576.207031 287.40625 576.464844 292.8125 C 576.722656 298.21875 576.824219 303.628906 576.765625 309.042969 C 576.707031 314.457031 576.488281 319.863281 576.113281 325.261719 C 575.738281 330.664062 575.203125 336.046875 574.511719 341.414062 C 573.816406 346.785156 572.96875 352.128906 571.964844 357.445312 C 570.957031 362.765625 569.796875 368.050781 568.480469 373.300781 C 567.164062 378.550781 565.695312 383.757812 564.074219 388.925781 C 562.453125 394.089844 560.679688 399.199219 558.757812 404.261719 C 556.835938 409.320312 554.769531 414.320312 552.550781 419.261719 C 550.335938 424.199219 547.980469 429.070312 545.476562 433.871094 C 542.976562 438.671875 540.335938 443.394531 537.558594 448.039062 C 534.78125 452.683594 531.867188 457.246094 528.824219 461.71875 C 525.777344 466.195312 522.601562 470.578125 519.296875 474.863281 C 515.996094 479.152344 512.570312 483.339844 509.019531 487.429688 C 505.472656 491.515625 501.804688 495.496094 498.023438 499.367188 C 494.242188 503.238281 490.347656 506.996094 486.34375 510.640625 C 482.339844 514.285156 478.234375 517.808594 474.023438 521.210938 C 469.816406 524.613281 465.507812 527.890625 461.105469 531.039062 C 456.703125 534.1875 452.214844 537.207031 447.632812 540.09375 C 443.054688 542.980469 438.394531 545.726562 433.65625 548.339844 C 428.914062 550.953125 424.101562 553.425781 419.214844 555.753906 C 414.328125 558.085938 409.378906 560.269531 404.363281 562.308594 C 399.351562 564.347656 394.28125 566.238281 389.15625 567.980469 Z M 389.234375 567.878906 "/>
</g>
</g>
</svg>
