<?xml version="1.0" encoding="UTF-8"?>
<svg xmlns="http://www.w3.org/2000/svg" xmlns:xlink="http://www.w3.org/1999/xlink" width="375pt" height="374.999991pt" viewBox="0 0 375 374.999991" version="1.2">
<defs>
<clipPath id="clip1">
  <path d="M 12 18.75 L 358 18.75 L 358 356 L 12 356 Z M 12 18.75 "/>
</clipPath>
</defs>
<g id="surface1">
<g clip-path="url(#clip1)" clip-rule="nonzero">
<path style=" stroke:none;fill-rule:nonzero;fill:rgb(38.42926%,87.838745%,85.099792%);fill-opacity:1;" d="M 240.640625 354.925781 C 240.066406 355.070312 239.484375 355.144531 238.890625 355.144531 L 237.597656 353.964844 L 237.597656 343.902344 C 237.597656 334.535156 237.757812 320.355469 237.757812 304.125 C 237.847656 299.335938 237.390625 294.601562 236.386719 289.917969 C 235.378906 285.234375 233.847656 280.730469 231.796875 276.402344 C 267.757812 269.902344 308.058594 250.472656 308.058594 180.890625 C 308.132812 176.335938 307.804688 171.804688 307.082031 167.308594 C 306.359375 162.808594 305.246094 158.40625 303.75 154.101562 C 302.25 149.796875 300.390625 145.65625 298.164062 141.679688 C 295.9375 137.703125 293.382812 133.953125 290.496094 130.425781 C 291.578125 126.371094 292.324219 122.253906 292.726562 118.078125 C 293.132812 113.902344 293.191406 109.71875 292.902344 105.53125 C 292.617188 101.347656 291.988281 97.210938 291.019531 93.128906 C 290.046875 89.046875 288.75 85.070312 287.121094 81.203125 C 286.6875 80.109375 286.042969 79.15625 285.183594 78.351562 C 284.328125 77.546875 283.335938 76.960938 282.21875 76.597656 C 280.101562 76.003906 277.949219 75.738281 275.753906 75.792969 C 271.496094 76.171875 267.285156 76.847656 263.125 77.824219 C 258.960938 78.800781 254.890625 80.070312 250.90625 81.625 C 246.925781 83.179688 243.074219 85.011719 239.351562 87.113281 C 235.632812 89.21875 232.078125 91.574219 228.691406 94.183594 C 214.304688 90.605469 199.699219 88.773438 184.875 88.695312 C 170.042969 88.722656 155.429688 90.542969 141.042969 94.152344 C 137.652344 91.539062 134.09375 89.183594 130.367188 87.078125 C 126.640625 84.972656 122.78125 83.144531 118.796875 81.585938 C 114.808594 80.03125 110.730469 78.765625 106.5625 77.789062 C 102.394531 76.8125 98.179688 76.136719 93.917969 75.761719 C 91.722656 75.707031 89.566406 75.972656 87.453125 76.566406 C 86.332031 76.929688 85.34375 77.519531 84.484375 78.328125 C 83.625 79.136719 82.980469 80.089844 82.550781 81.1875 C 80.925781 85.054688 79.628906 89.03125 78.660156 93.117188 C 77.695312 97.199219 77.070312 101.335938 76.789062 105.523438 C 76.507812 109.707031 76.570312 113.890625 76.984375 118.066406 C 77.394531 122.242188 78.144531 126.355469 79.238281 130.410156 C 76.351562 133.933594 73.792969 137.6875 71.566406 141.664062 C 69.339844 145.640625 67.476562 149.777344 65.976562 154.082031 C 64.476562 158.386719 63.363281 162.789062 62.640625 167.289062 C 61.914062 171.789062 61.589844 176.320312 61.660156 180.875 C 61.660156 250.425781 101.925781 269.949219 137.8125 276.511719 C 135.824219 280.535156 134.363281 284.738281 133.429688 289.128906 C 129.097656 290.710938 124.625 291.53125 120.011719 291.589844 C 116.824219 291.660156 113.730469 291.160156 110.726562 290.089844 C 107.726562 289.015625 105.011719 287.445312 102.589844 285.375 C 102.117188 284.75 101.554688 284.226562 100.902344 283.796875 C 99.824219 282.609375 98.808594 281.371094 97.859375 280.074219 L 97.542969 279.699219 C 97.460938 279.546875 97.367188 279.40625 97.261719 279.273438 L 95.9375 277.566406 C 95.507812 277.066406 95.105469 276.539062 94.738281 275.992188 C 93.84375 274.433594 92.859375 272.933594 91.789062 271.488281 C 90.71875 270.046875 89.566406 268.667969 88.335938 267.359375 C 87.105469 266.050781 85.800781 264.820312 84.425781 263.664062 C 83.050781 262.507812 81.613281 261.4375 80.109375 260.449219 C 78.609375 259.460938 77.058594 258.566406 75.449219 257.757812 C 73.84375 256.953125 72.199219 256.246094 70.507812 255.632812 C 68.820312 255.019531 67.101562 254.507812 65.351562 254.09375 C 63.601562 253.683594 61.835938 253.375 60.050781 253.171875 C 51.679688 253.171875 46.128906 256.121094 44.457031 261.511719 C 41.839844 269.949219 50.984375 276.242188 55.398438 279.160156 C 57.300781 280.46875 59.078125 281.925781 60.730469 283.535156 C 62.382812 285.144531 63.890625 286.878906 65.246094 288.742188 C 66.605469 290.605469 67.796875 292.570312 68.824219 294.636719 C 69.847656 296.703125 70.691406 298.84375 71.355469 301.050781 C 71.835938 302.292969 72.363281 303.511719 72.9375 304.710938 C 73.511719 305.910156 74.136719 307.085938 74.804688 308.234375 C 75.472656 309.382812 76.1875 310.507812 76.945312 311.597656 C 77.703125 312.691406 78.5 313.753906 79.34375 314.78125 C 80.1875 315.8125 81.066406 316.808594 81.988281 317.765625 C 82.910156 318.726562 83.867188 319.648438 84.859375 320.53125 C 85.855469 321.414062 86.882812 322.257812 87.945312 323.058594 C 89.003906 323.863281 90.09375 324.621094 91.214844 325.335938 C 92.335938 326.050781 93.484375 326.722656 94.660156 327.34375 C 95.832031 327.96875 97.03125 328.546875 98.25 329.074219 C 99.472656 329.605469 100.710938 330.085938 101.96875 330.515625 C 103.226562 330.945312 104.5 331.328125 105.789062 331.65625 C 107.078125 331.988281 108.375 332.265625 109.6875 332.492188 C 110.996094 332.71875 112.3125 332.890625 113.636719 333.015625 C 114.960938 333.136719 116.289062 333.207031 117.617188 333.222656 C 118.949219 333.238281 120.277344 333.203125 121.605469 333.113281 C 125.085938 333.109375 128.554688 332.882812 132.011719 332.4375 L 132.199219 354.027344 L 130.796875 355.160156 C 130.308594 355.160156 129.722656 355.160156 130.226562 355.289062 C 127.019531 354.214844 123.847656 353.050781 120.707031 351.792969 C 117.566406 350.535156 114.464844 349.1875 111.40625 347.75 C 108.34375 346.308594 105.328125 344.78125 102.359375 343.164062 C 99.386719 341.546875 96.464844 339.84375 93.59375 338.054688 C 90.722656 336.269531 87.90625 334.398438 85.144531 332.441406 C 82.382812 330.488281 79.683594 328.457031 77.039062 326.34375 C 74.398438 324.230469 71.820312 322.042969 69.308594 319.78125 C 66.792969 317.515625 64.347656 315.179688 61.972656 312.773438 C 59.59375 310.367188 57.289062 307.890625 55.058594 305.351562 C 52.828125 302.808594 50.671875 300.203125 48.59375 297.53125 C 46.515625 294.863281 44.519531 292.136719 42.597656 289.347656 C 40.679688 286.5625 38.847656 283.722656 37.09375 280.828125 C 35.34375 277.933594 33.675781 274.992188 32.097656 272 C 30.519531 269.007812 29.027344 265.972656 27.628906 262.894531 C 26.226562 259.8125 24.917969 256.695312 23.699219 253.539062 C 22.480469 250.382812 21.355469 247.195312 20.328125 243.972656 C 19.296875 240.75 18.359375 237.5 17.519531 234.222656 C 16.679688 230.945312 15.9375 227.648438 15.289062 224.324219 C 14.644531 221.003906 14.09375 217.667969 13.644531 214.316406 C 13.191406 210.960938 12.839844 207.597656 12.585938 204.226562 C 12.335938 200.851562 12.179688 197.472656 12.125 194.089844 C 12.070312 190.707031 12.113281 187.328125 12.257812 183.945312 C 12.402344 180.566406 12.644531 177.191406 12.984375 173.828125 C 13.324219 170.460938 13.765625 167.109375 14.304688 163.769531 C 14.839844 160.429688 15.476562 157.105469 16.210938 153.804688 C 16.941406 150.5 17.769531 147.222656 18.695312 143.96875 C 19.621094 140.714844 20.640625 137.488281 21.757812 134.296875 C 22.871094 131.101562 24.078125 127.941406 25.378906 124.820312 C 26.675781 121.695312 28.066406 118.613281 29.546875 115.570312 C 31.03125 112.53125 32.597656 109.535156 34.253906 106.585938 C 35.910156 103.632812 37.652344 100.734375 39.480469 97.886719 C 41.304688 95.042969 43.214844 92.25 45.203125 89.515625 C 47.195312 86.777344 49.265625 84.105469 51.410156 81.492188 C 53.558594 78.875 55.78125 76.328125 58.078125 73.84375 C 60.375 71.363281 62.742188 68.949219 65.179688 66.601562 C 67.621094 64.257812 70.125 61.988281 72.695312 59.789062 C 75.269531 57.59375 77.902344 55.472656 80.597656 53.429688 C 83.296875 51.386719 86.046875 49.425781 88.859375 47.546875 C 91.671875 45.664062 94.535156 43.867188 97.453125 42.15625 C 100.367188 40.441406 103.332031 38.816406 106.347656 37.277344 C 109.359375 35.738281 112.414062 34.289062 115.511719 32.929688 C 118.605469 31.570312 121.742188 30.304688 124.914062 29.128906 C 128.085938 27.953125 131.289062 26.871094 134.523438 25.882812 C 137.757812 24.898438 141.019531 24.003906 144.304688 23.210938 C 147.59375 22.414062 150.902344 21.714844 154.230469 21.113281 C 157.558594 20.511719 160.902344 20.007812 164.257812 19.605469 C 167.617188 19.199219 170.984375 18.890625 174.359375 18.683594 C 177.734375 18.476562 181.113281 18.367188 184.496094 18.359375 C 187.878906 18.351562 191.257812 18.441406 194.636719 18.628906 C 198.011719 18.820312 201.382812 19.105469 204.742188 19.492188 C 208.101562 19.882812 211.449219 20.367188 214.777344 20.949219 C 218.109375 21.53125 221.421875 22.214844 224.714844 22.992188 C 228.003906 23.769531 231.269531 24.644531 234.511719 25.613281 C 237.75 26.582031 240.960938 27.648438 244.140625 28.804688 C 247.316406 29.960938 250.457031 31.214844 253.5625 32.554688 C 256.667969 33.898438 259.730469 35.332031 262.75 36.851562 C 265.769531 38.375 268.742188 39.984375 271.671875 41.683594 C 274.597656 43.378906 277.46875 45.160156 280.292969 47.027344 C 283.113281 48.890625 285.878906 50.839844 288.585938 52.867188 C 291.292969 54.894531 293.9375 57 296.519531 59.183594 C 299.105469 61.367188 301.621094 63.625 304.074219 65.953125 C 306.523438 68.285156 308.90625 70.6875 311.214844 73.15625 C 313.527344 75.628906 315.761719 78.164062 317.921875 80.765625 C 320.085938 83.371094 322.167969 86.03125 324.171875 88.757812 C 326.179688 91.480469 328.101562 94.261719 329.945312 97.101562 C 331.785156 99.9375 333.542969 102.828125 335.214844 105.765625 C 336.890625 108.707031 338.472656 111.695312 339.972656 114.726562 C 341.46875 117.761719 342.875 120.835938 344.191406 123.953125 C 345.507812 127.070312 346.734375 130.222656 347.863281 133.410156 C 348.996094 136.597656 350.035156 139.816406 350.976562 143.066406 C 351.917969 146.316406 352.765625 149.589844 353.515625 152.886719 C 354.269531 156.1875 354.921875 159.503906 355.476562 162.839844 C 356.035156 166.179688 356.492188 169.53125 356.851562 172.894531 C 357.210938 176.257812 357.472656 179.628906 357.632812 183.007812 C 357.792969 186.386719 357.855469 189.769531 357.820312 193.152344 C 357.785156 196.535156 357.648438 199.914062 357.414062 203.289062 C 357.175781 206.664062 356.84375 210.03125 356.410156 213.386719 C 355.980469 216.738281 355.449219 220.078125 354.820312 223.40625 C 354.191406 226.730469 353.464844 230.03125 352.644531 233.3125 C 351.820312 236.59375 350.902344 239.851562 349.890625 243.078125 C 348.875 246.304688 347.769531 249.5 346.570312 252.664062 C 345.367188 255.828125 344.074219 258.949219 342.691406 262.039062 C 341.308594 265.125 339.832031 268.167969 338.269531 271.167969 C 336.707031 274.167969 335.058594 277.121094 333.324219 280.023438 C 331.585938 282.929688 329.765625 285.777344 327.863281 288.574219 C 325.960938 291.371094 323.976562 294.109375 321.914062 296.789062 C 319.847656 299.472656 317.707031 302.089844 315.492188 304.644531 C 313.273438 307.199219 310.980469 309.683594 308.617188 312.105469 C 306.253906 314.523438 303.824219 316.875 301.320312 319.152344 C 298.820312 321.429688 296.253906 323.628906 293.625 325.757812 C 290.992188 327.882812 288.300781 329.929688 285.550781 331.898438 C 282.800781 333.867188 279.996094 335.753906 277.132812 337.558594 C 274.273438 339.363281 271.359375 341.078125 268.398438 342.710938 C 265.4375 344.347656 262.429688 345.890625 259.375 347.347656 C 256.324219 348.804688 253.230469 350.167969 250.097656 351.441406 C 246.964844 352.71875 243.796875 353.898438 240.59375 354.988281 Z M 240.640625 354.925781 "/>
</g>
</g>
</svg>
