<?xml version="1.0" encoding="UTF-8"?>
<svg xmlns="http://www.w3.org/2000/svg" xmlns:xlink="http://www.w3.org/1999/xlink" width="600pt" height="599.999999pt" viewBox="0 0 600 599.999999" version="1.2">
<g id="surface1">
<path style=" stroke:none;fill-rule:nonzero;fill:rgb(71.369934%,81.568909%,94.898987%);fill-opacity:1;" d="M 299.867188 54.097656 C 379.929688 54.097656 389.394531 54.359375 421.078125 55.804688 C 450.261719 57.121094 466.171875 61.984375 476.820312 66.191406 C 490.753906 71.582031 500.746094 78.15625 511.261719 88.671875 C 521.777344 99.1875 528.222656 109.179688 533.742188 123.117188 C 537.816406 133.632812 542.683594 149.539062 544.128906 178.855469 C 545.574219 210.539062 545.835938 220.003906 545.835938 300.066406 C 545.835938 380.128906 545.574219 389.59375 544.128906 421.273438 C 542.8125 450.460938 537.949219 466.367188 533.742188 477.015625 C 528.351562 490.949219 521.777344 500.941406 511.261719 511.460938 C 500.746094 521.976562 490.753906 528.417969 476.820312 533.941406 C 466.300781 538.015625 450.394531 542.878906 421.078125 544.324219 C 389.394531 545.769531 379.929688 546.035156 299.867188 546.035156 C 219.808594 546.035156 210.339844 545.769531 178.660156 544.324219 C 149.472656 543.011719 133.566406 538.144531 122.917969 533.941406 C 108.984375 528.550781 98.992188 521.976562 88.476562 511.460938 C 77.957031 500.941406 71.515625 490.949219 65.996094 477.015625 C 61.917969 466.5 57.054688 450.589844 55.609375 421.273438 C 54.164062 389.59375 53.898438 380.128906 53.898438 300.066406 C 53.898438 220.003906 54.164062 210.539062 55.609375 178.855469 C 56.921875 149.671875 61.789062 133.765625 65.996094 123.117188 C 71.382812 109.179688 77.957031 99.1875 88.476562 88.671875 C 98.992188 78.15625 108.984375 71.714844 122.917969 66.191406 C 133.4375 62.117188 149.34375 57.253906 178.660156 55.804688 C 210.339844 54.359375 219.808594 54.097656 299.867188 54.097656 M 299.867188 0.0664062 C 218.359375 0.0664062 208.238281 0.460938 176.160156 1.90625 C 144.214844 3.351562 122.394531 8.480469 103.332031 15.839844 C 83.609375 23.464844 66.914062 33.71875 50.21875 50.417969 C 33.65625 67.113281 23.402344 83.808594 15.777344 103.527344 C 8.414062 122.589844 3.285156 144.414062 1.839844 176.359375 C 0.394531 208.304688 0 218.558594 0 299.933594 C 0 381.441406 0.394531 391.566406 1.839844 423.640625 C 3.285156 455.585938 8.414062 477.410156 15.777344 496.472656 C 23.402344 516.191406 33.65625 532.886719 50.351562 549.582031 C 67.046875 566.28125 83.742188 576.535156 103.460938 584.160156 C 122.523438 591.519531 144.347656 596.648438 176.292969 598.09375 C 208.238281 599.539062 218.492188 599.933594 300 599.933594 C 381.507812 599.933594 391.628906 599.539062 423.707031 598.09375 C 455.652344 596.648438 477.476562 591.519531 496.539062 584.160156 C 516.257812 576.535156 532.953125 566.28125 549.648438 549.582031 C 566.34375 532.886719 576.597656 516.191406 584.222656 496.472656 C 591.585938 477.410156 596.714844 455.585938 598.160156 423.640625 C 599.605469 391.695312 600 381.441406 600 299.933594 C 600 218.425781 599.605469 208.304688 598.160156 176.226562 C 596.714844 144.28125 591.585938 122.457031 584.222656 103.394531 C 576.597656 83.675781 566.34375 66.980469 549.648438 50.285156 C 532.953125 33.589844 516.257812 23.335938 496.539062 15.710938 C 477.476562 8.347656 455.652344 3.222656 423.707031 1.773438 C 391.628906 0.460938 381.375 0.0664062 299.867188 0.0664062 "/>
<path style=" stroke:none;fill-rule:nonzero;fill:rgb(71.369934%,81.568909%,94.898987%);fill-opacity:1;" d="M 299.867188 145.992188 C 214.8125 145.992188 145.925781 214.878906 145.925781 299.933594 C 145.925781 384.992188 214.941406 454.007812 300 454.007812 C 385.058594 454.007812 454.074219 385.121094 454.074219 299.933594 C 453.945312 214.878906 384.925781 145.992188 299.867188 145.992188 M 299.867188 399.976562 C 244.652344 399.976562 199.957031 355.28125 199.957031 300.066406 C 199.957031 244.851562 244.652344 200.152344 299.867188 200.152344 C 355.082031 200.152344 399.78125 244.851562 399.78125 300.066406 C 399.914062 355.148438 355.082031 399.976562 299.867188 399.976562 "/>
<path style=" stroke:none;fill-rule:nonzero;fill:rgb(71.369934%,81.568909%,94.898987%);fill-opacity:1;" d="M 496.011719 139.941406 C 496.011719 159.792969 479.84375 175.964844 459.992188 175.964844 C 440.140625 175.964844 423.96875 159.792969 423.96875 139.941406 C 423.96875 120.09375 440.140625 103.921875 459.992188 103.921875 C 479.84375 103.921875 496.011719 119.960938 496.011719 139.941406 "/>
</g>
</svg>
