<?xml version="1.0" encoding="UTF-8"?>
<svg xmlns="http://www.w3.org/2000/svg" xmlns:xlink="http://www.w3.org/1999/xlink" width="600pt" height="599.999999pt" viewBox="0 0 600 599.999999" version="1.2">
<g id="surface1">
<path style=" stroke:none;fill-rule:nonzero;fill:rgb(71.369934%,81.568909%,94.898987%);fill-opacity:1;" d="M 9.800781 199.390625 L 134.257812 199.390625 L 134.257812 599.210938 L 9.800781 599.210938 Z M 72.070312 0.628906 C 111.859375 0.628906 144.121094 32.9375 144.121094 72.664062 C 144.121094 112.433594 111.859375 144.734375 72.070312 144.734375 C 32.132812 144.734375 -0.0664062 112.429688 -0.0664062 72.664062 C -0.0664062 32.9375 32.132812 0.628906 72.070312 0.628906 "/>
<path style=" stroke:none;fill-rule:nonzero;fill:rgb(71.369934%,81.568909%,94.898987%);fill-opacity:1;" d="M 212.277344 199.390625 L 331.464844 199.390625 L 331.464844 254.035156 L 333.15625 254.035156 C 349.730469 222.578125 390.320312 189.453125 450.808594 189.453125 C 576.617188 189.453125 599.886719 272.222656 599.886719 379.90625 L 599.886719 599.210938 L 475.660156 599.210938 L 475.660156 404.820312 C 475.660156 358.410156 474.746094 298.761719 411.035156 298.761719 C 346.324219 298.761719 336.457031 349.269531 336.457031 401.394531 L 336.457031 599.210938 L 212.277344 599.210938 Z M 212.277344 199.390625 "/>
</g>
</svg>
