<svg id="Camada_1" data-name="Camada 1" xmlns="http://www.w3.org/2000/svg" viewBox="0 0 885.59 885.59"><defs><style>.cls-1,.cls-3{fill:none;}.cls-1{stroke:#b5cfed;stroke-width:23px;}.cls-1,.cls-2,.cls-3,.cls-4,.cls-5,.cls-7{stroke-linecap:round;stroke-linejoin:round;}.cls-2,.cls-4,.cls-5,.cls-9{fill:#b6cfed;}.cls-2,.cls-3,.cls-4,.cls-5,.cls-6,.cls-7{stroke:#b6cfed;}.cls-2{stroke-width:0.5px;}.cls-3,.cls-4,.cls-6,.cls-7{stroke-width:10px;}.cls-5{stroke-width:2px;}.cls-6{stroke-miterlimit:10;}.cls-8{fill:#616160;}</style></defs><title>logoastro</title><rect class="cls-1" x="11.5" y="11.5" width="862.59" height="862.59" rx="431.29"/><path class="cls-2" d="M2932.71-418.54l66.36-57.79L2952-417.47l92.41-88.47,410.67,5.82,6.4-7.14,14.93,6.31-15,13.92,32.11,27.82,36.39,15c-46.37,23.92-75.66,53.78-93.12,87.75,40.59-35.84,84.49-54.28,131.64-55.65-117.91,75.69-247.22,126.27-397.06,131.64l51.38-57.79,86.69-32.11-78.13,13.91-76,68.5-28.9,8.56,3.22-17.12L3089-283.69C3033.39-294,2981.06-336.51,2932.71-418.54Z" transform="translate(-2806.21 1068.38)"/><path class="cls-3" d="M3043.86-501.94l-22.47,1-1.07-21.41-25.69-1.07,2.14-41.74,22.48,2.14c-1.69-10.21,2.14-20.82-1-30.5-1.92-5.92-.87-10.54,2.55-14.17,5.13-5.44,4.5-14.48,8.1-21.68L3005.34-624c-7.11-9.23-6.7-20.29-3.21-32.11,19.89-43.9,34-102.65,46-167,1.55-32.81,9.76-57.11,23.54-73.84l86.69-58.87c39.92-15.6,85.18-24,137-23.54,40.26,6.35,76,20,106,42.81,28.39,19.38,48.14,38.66,54.58,57.79q28.74,58.49,32.1,113.45c15.06,29.46,25,54.64,27.83,73.84-9,38.16-23.07,74.82-44.6,109.17V-548l-13.3,42.8Z" transform="translate(-2806.21 1068.38)"/><path class="cls-3" d="M3028.15-629.37c54.25-17.13,132.95-6.59,224.77,12.08,60.28,4.62,99.93-12.73,115.59-55.65h17.12L3407-781l-20.34-9.63-31-3.21" transform="translate(-2806.21 1068.38)"/><path class="cls-4" d="M3328.1-684.43l.93.44-24.74,20.62c-9.07,7.7-21,12.17-36.39,12.84-93.37-23.46-177.41-27.84-249.36-7.49l44.95-201.21c22.7-11.15,43-17.16,61-18.19,36.1-7.65,68.41-7,97.39,1.07,32.63,7.54,54.41,13.8,69.57,19.26l34.25,22.48c19.14,18.54,26.08,31.15,30,40.67h-26.75c-22.57,27.38-25.39,58.28-18.2,91C3312.53-692.61,3317.66-686.74,3328.1-684.43Z" transform="translate(-2806.21 1068.38)"/><line class="cls-3" x1="522.47" y1="384.34" x2="562.3" y2="395.11"/><path class="cls-3" d="M3386.7-791l-18.19-45c-10.93-23.78-35-44.25-69.57-62.07l-72.78-15c-63-5.29-109.31,5.6-152.24,15.25" transform="translate(-2806.21 1068.38)"/><polyline class="cls-3" points="208.05 505.35 223.5 505.86 664.68 520.59"/><line class="cls-3" x1="209.12" y1="546.02" x2="652.2" y2="566.35"/><path class="cls-3" d="M3459.74-644.37" transform="translate(-2806.21 1068.38)"/><polyline class="cls-3" points="707.12 393.51 724.98 407.95 719.16 418.98 693.94 466.82 680.93 458.41"/><path class="cls-3" d="M3517.06-444.35c31.51-21.59,49.32-48.84,48.37-80.16,15.06-27.4,6.55-41.43,2.14-57.79-1.15-33.19-18.88-53.59-39.6-71.71" transform="translate(-2806.21 1068.38)"/><path class="cls-3" d="M3503.66-606.81c12.72,9.94,20.65,23.65,19.9,41.9-7.16,10.35-7.28,25.58-2,44.55-2.79,19.64-19.91,35.84-43,51.12" transform="translate(-2806.21 1068.38)"/><circle class="cls-5" cx="533.03" cy="291.44" r="7"/><ellipse class="cls-5" cx="583.03" cy="301.44" rx="8" ry="9"/><ellipse class="cls-5" cx="520.53" cy="361.44" rx="6.5" ry="7"/><ellipse class="cls-5" cx="565.03" cy="374.44" rx="8" ry="7"/><polyline class="cls-3" points="597.75 303.2 629.06 323.67 622.64 358.99 590.53 342.54"/><path class="cls-3" d="M3514.13-687.92c-4.42-4-14.12-.87-15.32-.87s-1.74-12.57-1.74-12.57l-12-1.21-.94,32.24,25.22.67" transform="translate(-2806.21 1068.38)"/><line class="cls-3" x1="627.05" y1="336.52" x2="678.02" y2="374.64"/><line class="cls-3" x1="624.24" y1="350.56" x2="676.55" y2="390.03"/><path d="M3330-447.45" transform="translate(-2806.21 1068.38)"/><path d="M3344.43-423.9" transform="translate(-2806.21 1068.38)"/><path class="cls-6" d="M3440.21-353.27" transform="translate(-2806.21 1068.38)"/><line class="cls-7" x1="715.35" y1="548.02" x2="759.23" y2="543.88"/><line class="cls-7" x1="717.35" y1="503.47" x2="761.37" y2="486.08"/><path d="M3312-553.84" transform="translate(-2806.21 1068.38)"/><path class="cls-8" d="M3386.7-363.44c-18,12.39-33.34,29-46.55,49" transform="translate(-2806.21 1068.38)"/><path class="cls-9" d="M3276.73-410" transform="translate(-2806.21 1068.38)"/><path class="cls-9" d="M3249.44-390.73" transform="translate(-2806.21 1068.38)"/><path class="cls-8" d="M3163.57-481.76A993.67,993.67,0,0,0,3024.3-347.71" transform="translate(-2806.21 1068.38)"/><line class="cls-8" x1="264.4" y1="578.99" x2="173.29" y2="657.65"/></svg>