<?xml version="1.0" encoding="UTF-8"?>
<svg xmlns="http://www.w3.org/2000/svg" xmlns:xlink="http://www.w3.org/1999/xlink" width="600pt" height="599.999999pt" viewBox="0 0 600 599.999999" version="1.2">
<defs>
<clipPath id="clip1">
  <path d="M 398 9 L 595.125 9 L 595.125 207 L 398 207 Z M 398 9 "/>
</clipPath>
</defs>
<g id="surface1">
<path style=" stroke:none;fill-rule:nonzero;fill:rgb(71.369934%,81.568909%,94.898987%);fill-opacity:1;" d="M 457.628906 412.453125 C 452.21875 412.453125 447.808594 416.863281 447.808594 422.273438 L 447.808594 461.558594 L 182.636719 461.558594 C 177.226562 461.558594 172.816406 465.96875 172.816406 471.378906 C 172.816406 476.789062 177.226562 481.199219 182.636719 481.199219 L 447.808594 481.199219 L 447.808594 549.949219 C 447.808594 566.214844 434.609375 579.410156 418.34375 579.410156 L 182.636719 579.410156 C 166.371094 579.410156 153.175781 566.214844 153.175781 549.949219 L 153.175781 137.460938 C 153.175781 121.195312 166.371094 107.996094 182.636719 107.996094 L 369.8125 107.996094 C 375.222656 107.996094 379.636719 103.585938 379.636719 98.175781 C 379.636719 92.765625 375.222656 88.355469 369.8125 88.355469 L 182.636719 88.355469 C 155.550781 88.355469 133.53125 110.375 133.53125 137.460938 L 133.53125 549.949219 C 133.53125 577.03125 155.550781 599.054688 182.636719 599.054688 L 418.34375 599.054688 C 445.429688 599.054688 467.449219 577.03125 467.449219 549.949219 L 467.449219 422.273438 C 467.449219 416.863281 463.039062 412.453125 457.628906 412.453125 "/>
<path style=" stroke:none;fill-rule:nonzero;fill:rgb(71.369934%,81.568909%,94.898987%);fill-opacity:1;" d="M 212.101562 137.460938 C 212.101562 132.050781 207.6875 127.640625 202.28125 127.640625 C 196.871094 127.640625 192.457031 132.050781 192.457031 137.460938 C 192.457031 142.871094 196.871094 147.28125 202.28125 147.28125 C 207.6875 147.28125 212.101562 142.871094 212.101562 137.460938 "/>
<path style=" stroke:none;fill-rule:nonzero;fill:rgb(71.369934%,81.568909%,94.898987%);fill-opacity:1;" d="M 251.386719 137.460938 C 251.386719 132.050781 246.972656 127.640625 241.5625 127.640625 C 236.15625 127.640625 231.742188 132.050781 231.742188 137.460938 C 231.742188 142.871094 236.15625 147.28125 241.5625 147.28125 C 246.972656 147.28125 251.386719 142.871094 251.386719 137.460938 "/>
<path style=" stroke:none;fill-rule:nonzero;fill:rgb(71.369934%,81.568909%,94.898987%);fill-opacity:1;" d="M 261.207031 520.484375 L 339.777344 520.484375 C 345.183594 520.484375 349.597656 516.074219 349.597656 510.664062 C 349.597656 505.253906 345.183594 500.84375 339.777344 500.84375 L 261.207031 500.84375 C 244.941406 500.84375 231.742188 514.039062 231.742188 530.304688 C 231.742188 546.570312 244.941406 559.769531 261.207031 559.769531 L 339.777344 559.769531 C 345.183594 559.769531 349.597656 555.355469 349.597656 549.949219 C 349.597656 544.539062 345.183594 540.125 339.777344 540.125 L 261.207031 540.125 C 255.796875 540.125 251.386719 535.714844 251.386719 530.304688 C 251.386719 524.894531 255.796875 520.484375 261.207031 520.484375 "/>
<path style=" stroke:none;fill-rule:nonzero;fill:rgb(71.369934%,81.568909%,94.898987%);fill-opacity:1;" d="M 487.09375 363.347656 C 487.09375 368.753906 482.679688 373.167969 477.269531 373.167969 L 398.703125 373.167969 C 393.292969 373.167969 388.882812 368.753906 388.882812 363.347656 L 388.882812 284.777344 C 388.882812 279.367188 393.292969 274.957031 398.703125 274.957031 L 477.269531 274.957031 C 482.679688 274.957031 487.09375 279.367188 487.09375 284.777344 Z M 477.269531 255.3125 L 398.703125 255.3125 C 382.4375 255.3125 369.238281 268.511719 369.238281 284.777344 L 369.238281 363.347656 C 369.238281 379.613281 382.4375 392.808594 398.703125 392.808594 L 477.269531 392.808594 C 493.539062 392.808594 506.734375 379.613281 506.734375 363.347656 L 506.734375 284.777344 C 506.734375 268.511719 493.539062 255.3125 477.269531 255.3125 "/>
<path style=" stroke:none;fill-rule:nonzero;fill:rgb(71.369934%,81.568909%,94.898987%);fill-opacity:1;" d="M 437.988281 333.882812 C 432.578125 333.882812 428.164062 329.472656 428.164062 324.0625 C 428.164062 318.652344 432.578125 314.242188 437.988281 314.242188 C 443.394531 314.242188 447.808594 318.652344 447.808594 324.0625 C 447.808594 329.472656 443.394531 333.882812 437.988281 333.882812 Z M 437.988281 294.597656 C 421.71875 294.597656 408.523438 307.796875 408.523438 324.0625 C 408.523438 340.328125 421.71875 353.523438 437.988281 353.523438 C 454.253906 353.523438 467.449219 340.328125 467.449219 324.0625 C 467.449219 307.796875 454.253906 294.597656 437.988281 294.597656 "/>
<path style=" stroke:none;fill-rule:nonzero;fill:rgb(71.369934%,81.568909%,94.898987%);fill-opacity:1;" d="M 231.742188 288.535156 L 231.742188 261.375 L 258.90625 274.957031 Z M 285.261719 266.171875 L 226.332031 236.707031 C 223.265625 235.210938 219.660156 235.328125 216.742188 237.128906 C 213.867188 238.933594 212.101562 242.078125 212.101562 245.492188 L 212.101562 304.417969 C 212.101562 307.832031 213.867188 310.980469 216.742188 312.78125 C 218.355469 313.742188 220.117188 314.242188 221.921875 314.242188 C 223.417969 314.242188 224.914062 313.894531 226.332031 313.203125 L 285.261719 283.742188 C 288.558594 282.054688 290.671875 278.675781 290.671875 274.957031 C 290.671875 271.234375 288.558594 267.859375 285.261719 266.171875 "/>
<path style=" stroke:none;fill-rule:nonzero;fill:rgb(71.369934%,81.568909%,94.898987%);fill-opacity:1;" d="M 192.457031 324.0625 L 192.457031 225.851562 C 192.457031 220.441406 196.871094 216.03125 202.28125 216.03125 L 300.492188 216.03125 C 305.898438 216.03125 310.3125 220.441406 310.3125 225.851562 L 310.3125 324.0625 C 310.3125 329.472656 305.898438 333.882812 300.492188 333.882812 L 202.28125 333.882812 C 196.871094 333.882812 192.457031 329.472656 192.457031 324.0625 Z M 329.953125 324.0625 L 329.953125 225.851562 C 329.953125 209.585938 316.757812 196.386719 300.492188 196.386719 L 202.28125 196.386719 C 186.011719 196.386719 172.816406 209.585938 172.816406 225.851562 L 172.816406 324.0625 C 172.816406 340.328125 186.011719 353.523438 202.28125 353.523438 L 300.492188 353.523438 C 316.757812 353.523438 329.953125 340.328125 329.953125 324.0625 "/>
<g clip-path="url(#clip1)" clip-rule="nonzero">
<path style=" stroke:none;fill-rule:nonzero;fill:rgb(71.369934%,81.568909%,94.898987%);fill-opacity:1;" d="M 524 181.769531 C 528.449219 171.414062 531.632812 158.558594 533.628906 144.710938 C 547.476562 142.714844 560.328125 139.53125 570.6875 135.082031 C 562.707031 156.640625 545.558594 173.789062 524 181.769531 Z M 423.140625 135.082031 C 433.5 139.53125 446.351562 142.714844 460.199219 144.710938 C 462.195312 158.558594 465.378906 171.414062 469.828125 181.769531 C 448.269531 173.789062 431.121094 156.640625 423.140625 135.082031 Z M 469.828125 34.222656 C 465.378906 44.582031 462.195312 57.433594 460.199219 71.28125 C 446.351562 73.277344 433.5 76.460938 423.140625 80.910156 C 431.121094 59.351562 448.269531 42.203125 469.828125 34.222656 Z M 570.6875 80.910156 C 560.328125 76.460938 547.476562 73.277344 533.628906 71.28125 C 531.632812 57.433594 528.449219 44.582031 524 34.222656 C 545.558594 42.203125 562.707031 59.351562 570.6875 80.910156 Z M 496.914062 29.429688 C 500.480469 29.429688 508.84375 43.007812 513.410156 69.210938 C 507.925781 68.867188 502.398438 68.710938 496.914062 68.710938 C 491.425781 68.710938 485.902344 68.867188 480.417969 69.210938 C 484.984375 43.007812 493.347656 29.429688 496.914062 29.429688 Z M 418.34375 107.996094 C 418.34375 104.429688 431.925781 96.066406 458.128906 91.5 C 457.78125 96.988281 457.628906 102.511719 457.628906 107.996094 C 457.628906 113.484375 457.78125 119.007812 458.128906 124.492188 C 431.925781 119.929688 418.34375 111.566406 418.34375 107.996094 Z M 496.914062 127.640625 C 490.199219 127.640625 483.871094 127.371094 477.960938 126.949219 C 477.539062 121.039062 477.269531 114.710938 477.269531 107.996094 C 477.269531 101.285156 477.539062 94.953125 477.960938 89.046875 C 483.871094 88.625 490.199219 88.355469 496.914062 88.355469 C 503.628906 88.355469 509.957031 88.625 515.867188 89.046875 C 516.289062 94.953125 516.554688 101.285156 516.554688 107.996094 C 516.554688 114.710938 516.289062 121.039062 515.867188 126.949219 C 509.957031 127.371094 503.628906 127.640625 496.914062 127.640625 Z M 496.914062 186.566406 C 493.347656 186.566406 484.984375 172.984375 480.417969 146.78125 C 485.902344 147.128906 491.425781 147.28125 496.914062 147.28125 C 502.398438 147.28125 507.925781 147.128906 513.410156 146.78125 C 508.84375 172.984375 500.480469 186.566406 496.914062 186.566406 Z M 535.699219 124.492188 C 536.042969 119.007812 536.199219 113.484375 536.199219 107.996094 C 536.199219 102.511719 536.042969 96.988281 535.699219 91.5 C 561.902344 96.066406 575.484375 104.429688 575.484375 107.996094 C 575.484375 111.566406 561.902344 119.929688 535.699219 124.492188 Z M 496.914062 9.785156 C 442.742188 9.785156 398.703125 53.828125 398.703125 107.996094 C 398.703125 162.167969 442.742188 206.207031 496.914062 206.207031 C 551.082031 206.207031 595.125 162.167969 595.125 107.996094 C 595.125 53.828125 551.082031 9.785156 496.914062 9.785156 "/>
</g>
<path style=" stroke:none;fill-rule:nonzero;fill:rgb(71.369934%,81.568909%,94.898987%);fill-opacity:1;" d="M 104.070312 314.242188 C 76.984375 314.242188 54.960938 336.261719 54.960938 363.347656 L 54.960938 382.988281 L 35.320312 382.988281 C 29.910156 382.988281 25.5 387.402344 25.5 392.808594 C 25.5 398.21875 29.910156 402.628906 35.320312 402.628906 L 54.960938 402.628906 L 54.960938 441.914062 C 54.960938 447.324219 59.375 451.738281 64.785156 451.738281 C 70.191406 451.738281 74.605469 447.324219 74.605469 441.914062 L 74.605469 402.628906 L 94.246094 402.628906 C 99.65625 402.628906 104.070312 398.21875 104.070312 392.808594 C 104.070312 387.402344 99.65625 382.988281 94.246094 382.988281 L 74.605469 382.988281 L 74.605469 363.347656 C 74.605469 347.078125 87.800781 333.882812 104.070312 333.882812 C 109.476562 333.882812 113.890625 329.472656 113.890625 324.0625 C 113.890625 318.652344 109.476562 314.242188 104.070312 314.242188 "/>
<path style=" stroke:none;fill-rule:nonzero;fill:rgb(71.369934%,81.568909%,94.898987%);fill-opacity:1;" d="M 99.003906 80.222656 C 101.535156 80.222656 104.03125 79.261719 105.949219 77.34375 C 109.785156 73.507812 109.785156 67.292969 105.949219 63.457031 C 86.804688 44.3125 55.652344 44.3125 36.511719 63.457031 C 32.671875 67.292969 32.671875 73.507812 36.511719 77.34375 C 40.347656 81.179688 46.5625 81.179688 50.398438 77.34375 C 61.90625 65.835938 80.589844 65.875 92.0625 77.34375 C 93.980469 79.261719 96.511719 80.222656 99.003906 80.222656 "/>
<path style=" stroke:none;fill-rule:nonzero;fill:rgb(71.369934%,81.568909%,94.898987%);fill-opacity:1;" d="M 133.722656 35.679688 C 99.273438 1.191406 43.183594 1.230469 8.734375 35.679688 C 4.898438 39.515625 4.898438 45.734375 8.734375 49.570312 C 12.570312 53.40625 18.785156 53.40625 22.621094 49.570312 C 49.4375 22.753906 93.058594 22.789062 119.835938 49.570312 C 121.753906 51.488281 124.285156 52.445312 126.78125 52.445312 C 129.3125 52.445312 131.804688 51.488281 133.722656 49.570312 C 137.558594 45.734375 137.558594 39.515625 133.722656 35.679688 "/>
<path style=" stroke:none;fill-rule:nonzero;fill:rgb(71.369934%,81.568909%,94.898987%);fill-opacity:1;" d="M 71.230469 107.996094 C 76.636719 107.996094 81.050781 103.585938 81.050781 98.175781 C 81.050781 92.765625 76.636719 88.355469 71.230469 88.355469 C 65.820312 88.355469 61.40625 92.765625 61.40625 98.175781 C 61.40625 103.585938 65.820312 107.996094 71.230469 107.996094 "/>
<path style=" stroke:none;fill-rule:nonzero;fill:rgb(71.369934%,81.568909%,94.898987%);fill-opacity:1;" d="M 71.230469 196.386719 C 76.675781 196.386719 81.050781 191.976562 81.050781 186.566406 L 81.050781 137.460938 C 81.050781 132.050781 76.675781 127.640625 71.230469 127.640625 C 65.820312 127.640625 61.40625 132.050781 61.40625 137.460938 L 61.40625 186.566406 C 61.40625 191.976562 65.820312 196.386719 71.230469 196.386719 "/>
<path style=" stroke:none;fill-rule:nonzero;fill:rgb(71.369934%,81.568909%,94.898987%);fill-opacity:1;" d="M 280.847656 382.988281 L 202.28125 382.988281 C 196.871094 382.988281 192.457031 387.402344 192.457031 392.808594 C 192.457031 398.21875 196.871094 402.628906 202.28125 402.628906 L 280.847656 402.628906 C 286.257812 402.628906 290.671875 398.21875 290.671875 392.808594 C 290.671875 387.402344 286.257812 382.988281 280.847656 382.988281 "/>
<path style=" stroke:none;fill-rule:nonzero;fill:rgb(71.369934%,81.568909%,94.898987%);fill-opacity:1;" d="M 280.847656 422.273438 L 231.742188 422.273438 C 226.332031 422.273438 221.921875 426.683594 221.921875 432.09375 C 221.921875 437.503906 226.332031 441.914062 231.742188 441.914062 L 280.847656 441.914062 C 286.257812 441.914062 290.671875 437.503906 290.671875 432.09375 C 290.671875 426.683594 286.257812 422.273438 280.847656 422.273438 "/>
<path style=" stroke:none;fill-rule:nonzero;fill:rgb(71.369934%,81.568909%,94.898987%);fill-opacity:1;" d="M 359.417969 245.492188 C 364.828125 245.492188 369.238281 241.082031 369.238281 235.671875 L 369.238281 176.746094 C 369.238281 165.925781 360.414062 157.101562 349.597656 157.101562 L 280.847656 157.101562 C 275.441406 157.101562 271.027344 161.515625 271.027344 166.921875 C 271.027344 172.332031 275.441406 176.746094 280.847656 176.746094 L 349.597656 176.746094 L 349.597656 235.671875 C 349.597656 241.082031 354.007812 245.492188 359.417969 245.492188 "/>
</g>
</svg>
