<?xml version="1.0" encoding="UTF-8"?>
<svg xmlns="http://www.w3.org/2000/svg" xmlns:xlink="http://www.w3.org/1999/xlink" width="600pt" height="599.999999pt" viewBox="0 0 600 599.999999" version="1.2">
<g id="surface1">
<path style=" stroke:none;fill-rule:nonzero;fill:rgb(71.369934%,81.568909%,94.898987%);fill-opacity:1;" d="M 546.699219 169.566406 C 545.648438 169.566406 544.59375 169.308594 543.636719 168.746094 C 543.003906 168.398438 528.273438 159.769531 512.066406 138.019531 C 495.882812 116.292969 491.835938 99.6875 491.671875 99.011719 C 490.902344 95.691406 492.933594 92.34375 496.257812 91.574219 C 499.625 90.777344 502.921875 92.835938 503.691406 96.15625 C 503.738281 96.296875 507.433594 111.125 521.980469 130.652344 C 536.527344 150.15625 549.695312 157.992188 549.808594 158.058594 C 552.757812 159.769531 553.761719 163.554688 552.054688 166.503906 C 550.910156 168.46875 548.828125 169.566406 546.699219 169.566406 "/>
<path style=" stroke:none;fill-rule:nonzero;fill:rgb(71.369934%,81.568909%,94.898987%);fill-opacity:1;" d="M 316.769531 396.972656 C 315.808594 396.972656 314.875 396.761719 314.007812 396.316406 C 311.902344 395.289062 310.59375 393.160156 310.59375 390.820312 L 310.429688 335.703125 C 310.429688 333.761719 311.34375 331.914062 312.910156 330.742188 L 354.675781 299.640625 C 357.414062 297.605469 361.273438 298.167969 363.304688 300.902344 C 365.339844 303.640625 364.78125 307.519531 362.042969 309.554688 L 322.777344 338.789062 L 322.894531 378.519531 L 395.507812 324.453125 L 397.824219 309.8125 C 401.402344 287.433594 416.253906 268.839844 437.558594 260.046875 C 533.675781 220.453125 555.515625 126.863281 559.632812 102.613281 C 535.171875 99.640625 438.796875 93.867188 373.457031 174.96875 C 359.261719 192.601562 337.511719 201.535156 315.386719 198.9375 L 300.796875 197.230469 L 228.15625 251.347656 L 266.207031 262.832031 L 305.449219 233.574219 C 308.207031 231.539062 312.066406 232.101562 314.101562 234.835938 C 316.136719 237.574219 315.574219 241.457031 312.839844 243.488281 L 271.09375 274.59375 C 269.503906 275.761719 267.492188 276.113281 265.621094 275.550781 L 212.863281 259.625 C 210.617188 258.949219 208.957031 257.078125 208.558594 254.761719 C 208.164062 252.46875 209.074219 250.15625 210.945312 248.75 L 295.394531 185.84375 C 296.65625 184.90625 298.269531 184.488281 299.8125 184.671875 L 316.816406 186.660156 C 334.75 188.789062 352.316406 181.515625 363.820312 167.226562 C 443.566406 68.210938 566.601562 91.082031 567.816406 91.339844 C 570.953125 91.949219 573.078125 94.824219 572.777344 97.980469 C 572.660156 99.222656 559.398438 223.238281 442.257812 271.484375 C 424.953125 278.59375 412.90625 293.652344 410.03125 311.753906 L 407.296875 328.871094 C 407.0625 330.460938 406.195312 331.890625 404.910156 332.847656 L 320.4375 395.757812 C 319.363281 396.574219 318.078125 396.972656 316.769531 396.972656 "/>
<path style=" stroke:none;fill-rule:nonzero;fill:rgb(71.369934%,81.568909%,94.898987%);fill-opacity:1;" d="M 265.363281 327.984375 C 263.496094 327.984375 261.625 327.117188 260.40625 325.480469 C 258.371094 322.746094 258.933594 318.886719 261.671875 316.851562 L 339.78125 258.667969 C 342.515625 256.632812 346.375 257.195312 348.410156 259.929688 C 350.445312 262.667969 349.882812 266.546875 347.144531 268.582031 L 269.058594 326.746094 C 267.9375 327.585938 266.652344 327.984375 265.363281 327.984375 "/>
<path style=" stroke:none;fill-rule:nonzero;fill:rgb(71.369934%,81.568909%,94.898987%);fill-opacity:1;" d="M 447.472656 161.289062 C 442 161.289062 436.714844 163.019531 432.273438 166.339844 C 420.976562 174.757812 418.613281 190.777344 427.035156 202.074219 C 435.453125 213.367188 451.472656 215.730469 462.765625 207.3125 C 468.238281 203.242188 471.792969 197.253906 472.800781 190.519531 C 473.78125 183.761719 472.074219 177.027344 468.003906 171.578125 C 463.9375 166.105469 457.972656 162.550781 451.214844 161.546875 C 449.953125 161.359375 448.710938 161.289062 447.472656 161.289062 Z M 447.566406 224.710938 C 435.988281 224.710938 424.554688 219.425781 417.117188 209.464844 C 404.652344 192.695312 408.136719 168.910156 424.882812 156.421875 C 432.996094 150.390625 443.007812 147.863281 452.992188 149.335938 C 463.023438 150.789062 471.863281 156.074219 477.921875 164.1875 C 483.953125 172.300781 486.480469 182.289062 485.007812 192.296875 C 483.558594 202.332031 478.273438 211.171875 470.15625 217.203125 C 463.375 222.253906 455.449219 224.710938 447.566406 224.710938 "/>
<path style=" stroke:none;fill-rule:nonzero;fill:rgb(71.369934%,81.568909%,94.898987%);fill-opacity:1;" d="M 252.878906 552.605469 C 245.90625 552.605469 238.914062 550.804688 232.695312 547.207031 L 84.613281 461.707031 C 72.851562 454.945312 65.578125 442.296875 65.578125 428.753906 L 65.578125 226.230469 C 65.578125 210.46875 74.019531 195.757812 87.652344 187.832031 L 339.054688 41.433594 C 341.976562 39.703125 345.765625 40.707031 347.496094 43.65625 C 349.203125 46.601562 348.199219 50.390625 345.253906 52.097656 L 93.851562 198.496094 C 84.03125 204.222656 77.925781 214.84375 77.925781 226.230469 L 77.925781 428.753906 C 77.925781 437.898438 82.835938 446.433594 90.789062 451.019531 L 238.867188 536.519531 C 247.546875 541.523438 258.324219 541.5 266.980469 536.472656 L 507.527344 396.386719 C 510.453125 394.679688 514.238281 395.664062 515.96875 398.609375 C 517.679688 401.554688 516.695312 405.34375 513.75 407.050781 L 273.199219 547.136719 C 266.933594 550.78125 259.917969 552.605469 252.878906 552.605469 "/>
<path style=" stroke:none;fill-rule:nonzero;fill:rgb(71.369934%,81.568909%,94.898987%);fill-opacity:1;" d="M 252.761719 599.941406 C 245.859375 599.941406 238.9375 598.1875 232.765625 594.65625 L 46.402344 488.414062 C 34.542969 481.652344 27.175781 468.980469 27.175781 455.34375 L 27.175781 204.832031 C 27.175781 189.09375 35.644531 174.359375 49.253906 166.433594 L 326.472656 5.023438 C 334.914062 0.109375 345.460938 -0.0078125 353.976562 4.742188 L 366.882812 11.945312 C 377.921875 18.09375 384.773438 29.765625 384.773438 42.394531 L 384.773438 126.441406 C 384.773438 129.855469 382.015625 132.617188 378.601562 132.617188 C 375.1875 132.617188 372.425781 129.855469 372.425781 126.441406 L 372.425781 42.394531 C 372.425781 34.253906 367.984375 26.699219 360.851562 22.726562 L 347.964844 15.546875 C 343.21875 12.902344 337.371094 12.949219 332.695312 15.6875 L 55.476562 177.121094 C 45.652344 182.851562 39.550781 193.46875 39.550781 204.832031 L 39.550781 455.34375 C 39.550781 464.558594 44.507812 473.117188 52.527344 477.679688 L 238.890625 583.921875 C 247.546875 588.855469 258.253906 588.808594 266.886719 583.804688 L 543.683594 422.605469 C 549.808594 419.027344 553.621094 412.40625 553.621094 405.296875 L 553.621094 388.203125 C 553.621094 381.070312 549.785156 374.453125 543.636719 370.875 L 431.429688 305.953125 C 428.484375 304.222656 427.476562 300.457031 429.183594 297.511719 C 430.890625 294.542969 434.679688 293.558594 437.628906 295.242188 L 549.808594 360.1875 C 559.773438 365.941406 565.96875 376.671875 565.96875 388.203125 L 565.96875 405.296875 C 565.96875 416.78125 559.820312 427.492188 549.902344 433.269531 L 273.105469 594.46875 C 266.839844 598.117188 259.800781 599.941406 252.761719 599.941406 "/>
<path style=" stroke:none;fill-rule:nonzero;fill:rgb(71.369934%,81.568909%,94.898987%);fill-opacity:1;" d="M 126.824219 421.269531 C 124.792969 421.269531 122.828125 420.289062 121.632812 418.464844 C 119.785156 415.613281 120.582031 411.800781 123.433594 409.929688 L 240.15625 333.691406 C 243.007812 331.820312 246.84375 332.613281 248.714844 335.492188 C 250.5625 338.34375 249.765625 342.15625 246.914062 344.027344 L 130.195312 420.265625 C 129.140625 420.945312 127.972656 421.269531 126.824219 421.269531 "/>
</g>
</svg>
