<?xml version="1.0" encoding="UTF-8"?>
<svg xmlns="http://www.w3.org/2000/svg" xmlns:xlink="http://www.w3.org/1999/xlink" width="600pt" height="599.999999pt" viewBox="0 0 600 599.999999" version="1.2">
<defs>
<clipPath id="clip1">
  <path d="M 0 35.921875 L 600 35.921875 L 600 575.921875 L 0 575.921875 Z M 0 35.921875 "/>
</clipPath>
</defs>
<g id="surface1">
<g clip-path="url(#clip1)" clip-rule="nonzero">
<path style=" stroke:none;fill-rule:nonzero;fill:rgb(71.369934%,81.568909%,94.898987%);fill-opacity:1;" d="M 549.082031 35.453125 C 540.414062 35.832031 532.457031 38.324219 525.46875 41.078125 C 519.011719 43.621094 495.828125 53.367188 458.90625 68.851562 C 421.984375 84.339844 373.0625 104.871094 320.917969 126.800781 C 216.625 170.664062 99.425781 220.007812 39.375 245.277344 C 37.3125 246.136719 28.9375 248.703125 19.6875 255.765625 C 10.414062 262.847656 0.117188 278.21875 0.117188 295.023438 C 0.117188 308.582031 6.886719 322.390625 15.058594 330.296875 C 23.230469 338.203125 31.515625 341.902344 38.4375 344.652344 L 38.4375 344.59375 C 61.839844 353.917969 131.722656 381.882812 148.359375 388.539062 C 154.261719 406.226562 179.597656 481.941406 185.625 500.980469 L 185.566406 500.980469 C 189.828125 514.457031 193.980469 523.242188 199.746094 530.570312 C 202.628906 534.238281 206.070312 537.558594 210.292969 540.179688 C 211.914062 541.1875 213.707031 541.96875 215.507812 542.699219 C 215.757812 542.808594 216.019531 542.832031 216.269531 542.933594 L 215.566406 542.757812 C 216.089844 542.96875 216.558594 543.277344 217.089844 543.460938 C 217.957031 543.761719 218.558594 543.75 219.726562 543.988281 C 223.835938 545.253906 227.9375 546.097656 231.738281 546.097656 C 248.046875 546.097656 258.046875 537.25 258.046875 537.25 L 258.691406 536.78125 L 329.121094 477.191406 L 415.371094 556.996094 C 416.945312 559.222656 429.289062 575.921875 457.851562 575.921875 C 474.894531 575.921875 488.371094 567.488281 496.992188 558.636719 C 505.613281 549.789062 510.984375 540.734375 513.398438 528.460938 L 513.457031 528.402344 C 515.382812 518.5 597.949219 103.890625 597.949219 103.890625 L 597.773438 104.59375 C 600.34375 93.125 601.101562 82.03125 598.066406 70.726562 C 595.03125 59.421875 586.839844 48.390625 576.972656 42.601562 C 567.105469 36.8125 557.75 35.078125 549.082031 35.453125 Z M 537.246094 101.136719 C 533.984375 117.519531 460.019531 489.097656 455.449219 512.40625 L 330.878906 397.152344 L 246.679688 468.34375 L 270 377.171875 C 270 377.171875 430.875 214.328125 440.566406 204.847656 C 448.367188 197.257812 450 194.597656 450 191.957031 C 450 188.449219 448.195312 185.921875 444.023438 185.921875 C 440.273438 185.921875 435.179688 189.515625 432.480469 191.195312 C 398.171875 212.585938 252.039062 295.863281 180.175781 336.742188 C 175.851562 335.007812 110.921875 308.9375 75.9375 294.964844 C 138.164062 268.777344 244.835938 223.898438 344.179688 182.113281 C 396.316406 160.1875 445.226562 139.636719 482.109375 124.164062 C 513.246094 111.105469 529.484375 104.34375 537.246094 101.136719 Z M 454.570312 516.683594 C 454.570312 516.683594 454.628906 516.683594 454.628906 516.683594 C 454.628906 516.691406 454.574219 516.851562 454.570312 516.859375 C 454.609375 516.667969 454.542969 516.835938 454.570312 516.683594 Z M 454.570312 516.683594 "/>
</g>
</g>
</svg>
