<?xml version="1.0" encoding="UTF-8"?>
<svg xmlns="http://www.w3.org/2000/svg" xmlns:xlink="http://www.w3.org/1999/xlink" width="600pt" height="599.999999pt" viewBox="0 0 600 599.999999" version="1.2">
<defs>
<clipPath id="clip1">
  <path d="M 18.75 0 L 581 0 L 581 600 L 18.75 600 Z M 18.75 0 "/>
</clipPath>
</defs>
<g id="surface1">
<g clip-path="url(#clip1)" clip-rule="nonzero">
<path style=" stroke:none;fill-rule:nonzero;fill:rgb(71.369934%,81.568909%,94.898987%);fill-opacity:1;" d="M 534.375 164.0625 L 440.15625 164.0625 L 440.15625 33.28125 C 440.15625 15 425.15625 0 406.875 0 L 52.03125 0 C 33.75 0 18.75 15 18.75 33.28125 L 18.75 566.71875 C 18.75 585 33.75 600 52.03125 600 L 534.375 600 C 560.15625 600 580.78125 578.90625 580.78125 553.59375 L 580.78125 211.40625 C 581.25 185.15625 560.15625 164.0625 534.375 164.0625 Z M 431.25 192.1875 L 472.96875 192.1875 C 478.125 192.1875 482.34375 196.40625 482.34375 201.5625 C 482.34375 206.71875 478.125 210.9375 472.96875 210.9375 L 431.25 210.9375 C 426.09375 210.9375 421.875 206.71875 421.875 201.5625 C 421.875 196.40625 426.09375 192.1875 431.25 192.1875 Z M 196.40625 37.5 L 262.96875 37.5 C 268.125 37.5 272.34375 41.71875 272.34375 46.875 C 272.34375 52.03125 268.125 56.25 262.96875 56.25 L 196.40625 56.25 C 191.25 56.25 187.03125 52.03125 187.03125 46.875 C 187.03125 41.71875 191.25 37.5 196.40625 37.5 Z M 161.71875 40.3125 C 165.46875 36.5625 171.5625 36.5625 174.84375 40.3125 C 176.71875 42.1875 177.65625 44.53125 177.65625 46.875 C 177.65625 49.21875 176.71875 51.5625 174.84375 53.4375 C 173.4375 55.3125 171.09375 56.25 168.28125 56.25 C 165.9375 56.25 163.59375 55.3125 161.71875 53.4375 C 159.84375 51.5625 158.90625 49.21875 158.90625 46.875 C 158.90625 44.53125 160.3125 42.1875 161.71875 40.3125 Z M 227.8125 581.71875 C 212.34375 581.71875 199.6875 569.0625 199.6875 553.59375 C 199.6875 538.125 212.34375 525.46875 227.8125 525.46875 C 243.28125 525.46875 255.9375 538.125 255.9375 553.59375 C 255.9375 569.0625 243.28125 581.71875 227.8125 581.71875 Z M 323.4375 210.9375 L 323.4375 506.25 L 46.875 506.25 L 46.875 89.0625 L 412.5 89.0625 L 412.5 164.0625 L 369.84375 164.0625 C 344.53125 164.0625 323.4375 185.15625 323.4375 210.9375 Z M 412.5 202.03125 C 412.5 204.375 411.5625 206.71875 409.6875 208.59375 C 407.8125 210.46875 405.46875 211.40625 403.125 211.40625 C 400.78125 211.40625 398.4375 210.46875 396.5625 208.59375 C 394.6875 206.71875 393.75 204.375 393.75 202.03125 C 393.75 199.6875 394.6875 197.34375 396.5625 195.46875 C 399.84375 191.71875 406.40625 191.71875 409.6875 195.46875 C 411.5625 197.34375 412.5 199.6875 412.5 202.03125 Z M 452.34375 586.40625 C 437.8125 586.40625 426.09375 574.6875 426.09375 560.15625 C 426.09375 545.625 437.8125 533.90625 452.34375 533.90625 C 466.875 533.90625 478.59375 545.625 478.59375 560.15625 C 478.59375 574.6875 466.875 586.40625 452.34375 586.40625 Z M 557.8125 520.3125 L 346.875 520.3125 L 346.875 239.0625 L 557.8125 239.0625 Z M 557.8125 520.3125 "/>
</g>
</g>
</svg>
