<?xml version="1.0" encoding="UTF-8"?>
<svg xmlns="http://www.w3.org/2000/svg" xmlns:xlink="http://www.w3.org/1999/xlink" width="600pt" height="599.999999pt" viewBox="0 0 600 599.999999" version="1.2">
<defs>
<clipPath id="clip1">
  <path d="M 508 273 L 586.960938 273 L 586.960938 353 L 508 353 Z M 508 273 "/>
</clipPath>
<clipPath id="clip2">
  <path d="M 13.5 300 L 40 300 L 40 327 L 13.5 327 Z M 13.5 300 "/>
</clipPath>
<clipPath id="clip3">
  <path d="M 180 224.25 L 420 224.25 L 420 372 L 180 372 Z M 180 224.25 "/>
</clipPath>
</defs>
<g id="surface1">
<path style=" stroke:none;fill-rule:nonzero;fill:rgb(71.369934%,81.568909%,94.898987%);fill-opacity:1;" d="M 287.164062 0.570312 C 315.957031 0.570312 339.320312 23.910156 339.320312 52.671875 C 339.320312 81.382812 315.957031 104.722656 287.164062 104.722656 C 258.371094 104.722656 235.0625 81.382812 235.0625 52.671875 C 235.0625 23.910156 258.371094 0.570312 287.164062 0.570312 "/>
<path style=" stroke:none;fill-rule:nonzero;fill:rgb(71.369934%,81.568909%,94.898987%);fill-opacity:1;" d="M 417.503906 39.648438 C 443.902344 39.648438 465.296875 61.019531 465.296875 87.390625 C 465.296875 113.707031 443.902344 135.078125 417.503906 135.078125 C 391.105469 135.078125 369.710938 113.707031 369.710938 87.390625 C 369.710938 61.019531 391.105469 39.648438 417.503906 39.648438 "/>
<path style=" stroke:none;fill-rule:nonzero;fill:rgb(71.369934%,81.568909%,94.898987%);fill-opacity:1;" d="M 513.089844 139.4375 C 537.09375 139.4375 556.519531 158.84375 556.519531 182.824219 C 556.519531 206.800781 537.09375 226.207031 513.089844 226.207031 C 489.085938 226.207031 469.609375 206.800781 469.609375 182.824219 C 469.609375 158.84375 489.085938 139.4375 513.089844 139.4375 "/>
<g clip-path="url(#clip1)" clip-rule="nonzero">
<path style=" stroke:none;fill-rule:nonzero;fill:rgb(71.369934%,81.568909%,94.898987%);fill-opacity:1;" d="M 547.84375 273.949219 C 569.398438 273.949219 586.910156 291.441406 586.910156 313.027344 C 586.910156 334.558594 569.398438 352.101562 547.84375 352.101562 C 526.234375 352.101562 508.726562 334.558594 508.726562 313.027344 C 508.726562 291.441406 526.234375 273.949219 547.84375 273.949219 "/>
</g>
<path style=" stroke:none;fill-rule:nonzero;fill:rgb(71.369934%,81.568909%,94.898987%);fill-opacity:1;" d="M 513.089844 408.457031 C 532.25 408.457031 547.84375 424.035156 547.84375 443.230469 C 547.84375 462.367188 532.25 477.945312 513.089844 477.945312 C 493.878906 477.945312 478.335938 462.367188 478.335938 443.230469 C 478.335938 424.035156 493.878906 408.457031 513.089844 408.457031 "/>
<path style=" stroke:none;fill-rule:nonzero;fill:rgb(71.369934%,81.568909%,94.898987%);fill-opacity:1;" d="M 417.503906 508.304688 C 434.324219 508.304688 447.894531 521.914062 447.894531 538.660156 C 447.894531 555.460938 434.324219 569.074219 417.503906 569.074219 C 400.6875 569.074219 387.113281 555.460938 387.113281 538.660156 C 387.113281 521.914062 400.6875 508.304688 417.503906 508.304688 "/>
<path style=" stroke:none;fill-rule:nonzero;fill:rgb(71.369934%,81.568909%,94.898987%);fill-opacity:1;" d="M 287.164062 547.378906 C 301.589844 547.378906 313.242188 559.023438 313.242188 573.378906 C 313.242188 587.785156 301.589844 599.429688 287.164062 599.429688 C 272.796875 599.429688 261.085938 587.785156 261.085938 573.378906 C 261.085938 559.023438 272.796875 547.378906 287.164062 547.378906 "/>
<path style=" stroke:none;fill-rule:nonzero;fill:rgb(71.369934%,81.568909%,94.898987%);fill-opacity:1;" d="M 156.878906 516.96875 C 168.855469 516.96875 178.59375 526.699219 178.59375 538.660156 C 178.59375 550.675781 168.855469 560.40625 156.878906 560.40625 C 144.851562 560.40625 135.109375 550.675781 135.109375 538.660156 C 135.109375 526.699219 144.851562 516.96875 156.878906 516.96875 "/>
<path style=" stroke:none;fill-rule:nonzero;fill:rgb(71.369934%,81.568909%,94.898987%);fill-opacity:1;" d="M 61.292969 425.84375 C 70.871094 425.84375 78.644531 433.605469 78.644531 443.230469 C 78.644531 452.796875 70.871094 460.5625 61.292969 460.5625 C 51.660156 460.5625 43.890625 452.796875 43.890625 443.230469 C 43.890625 433.605469 51.660156 425.84375 61.292969 425.84375 "/>
<g clip-path="url(#clip2)" clip-rule="nonzero">
<path style=" stroke:none;fill-rule:nonzero;fill:rgb(71.369934%,81.568909%,94.898987%);fill-opacity:1;" d="M 26.539062 300 C 33.722656 300 39.578125 305.847656 39.578125 313.027344 C 39.578125 320.203125 33.722656 326.050781 26.539062 326.050781 C 19.355469 326.050781 13.5 320.203125 13.5 313.027344 C 13.5 305.847656 19.355469 300 26.539062 300 "/>
</g>
<path style=" stroke:none;fill-rule:nonzero;fill:rgb(71.369934%,81.568909%,94.898987%);fill-opacity:1;" d="M 61.292969 174.15625 C 66.082031 174.15625 69.96875 178.039062 69.96875 182.824219 C 69.96875 187.609375 66.082031 191.488281 61.292969 191.488281 C 56.503906 191.488281 52.617188 187.609375 52.617188 182.824219 C 52.617188 178.039062 56.503906 174.15625 61.292969 174.15625 "/>
<g clip-path="url(#clip3)" clip-rule="nonzero">
<path style=" stroke:none;fill-rule:nonzero;fill:rgb(71.369934%,81.568909%,94.898987%);fill-opacity:1;" d="M 390.046875 265.4375 L 359.558594 283.082031 C 344.132812 268.210938 323.140625 259.058594 299.996094 259.058594 C 252.660156 259.058594 214.285156 297.359375 214.285156 344.601562 L 179.996094 344.601562 C 179.996094 278.460938 233.726562 224.839844 299.996094 224.839844 C 335.863281 224.839844 368.054688 240.542969 390.046875 265.4375 Z M 402.714844 282.648438 C 413.273438 300.054688 419.523438 320.359375 419.972656 342.089844 C 419.992188 342.925781 419.996094 343.761719 419.996094 344.601562 L 385.710938 344.601562 C 385.707031 343.734375 385.699219 343.082031 385.691406 342.648438 C 385.390625 329.3125 382.035156 316.730469 376.289062 305.570312 Z M 317.902344 346.144531 C 318.835938 354.035156 315.675781 362.175781 308.78125 367.175781 C 298.609375 374.550781 284.367188 372.300781 276.980469 362.148438 C 269.585938 351.992188 271.84375 337.78125 282.011719 330.40625 C 288.910156 325.40625 297.640625 324.921875 304.863281 328.246094 L 393.765625 271.960938 C 395.769531 270.785156 398.316406 271.339844 399.652344 273.175781 C 399.738281 273.292969 399.8125 273.40625 399.882812 273.535156 C 401 275.40625 400.574219 277.765625 398.996094 279.152344 Z M 317.902344 346.144531 "/>
</g>
</g>
</svg>
